<?xml version="1.0" encoding="UTF-8" standalone="no"?>
<!-- Created with Inkscape (http://www.inkscape.org/) -->

<svg
   width="210mm"
   height="297mm"
   viewBox="0 0 210 297"
   version="1.1"
   id="svg1"
   inkscape:version="1.4.3 (0d15f75042, 2025-12-25)"
   sodipodi:docname="OfficialRemadeBackgroundless.svg"
   xmlns:inkscape="http://www.inkscape.org/namespaces/inkscape"
   xmlns:sodipodi="http://sodipodi.sourceforge.net/DTD/sodipodi-0.dtd"
   xmlns="http://www.w3.org/2000/svg"
   xmlns:svg="http://www.w3.org/2000/svg">
  <sodipodi:namedview
     id="namedview1"
     pagecolor="#ffffff"
     bordercolor="#000000"
     borderopacity="0.25"
     inkscape:showpageshadow="2"
     inkscape:pageopacity="0.0"
     inkscape:pagecheckerboard="0"
     inkscape:deskcolor="#d1d1d1"
     inkscape:document-units="mm"
     showguides="false"
     inkscape:zoom="0.56438415"
     inkscape:cx="252.4876"
     inkscape:cy="644.95078"
     inkscape:window-width="1920"
     inkscape:window-height="1011"
     inkscape:window-x="0"
     inkscape:window-y="0"
     inkscape:window-maximized="1"
     inkscape:current-layer="layer1" />
  <defs
     id="defs1" />
  <g
     inkscape:label="Layer 1"
     inkscape:groupmode="layer"
     id="layer1">
    <path
       id="path1"
       style="opacity:1;fill:#2f2f2f;fill-opacity:1;stroke-width:0.264583"
       d="M 104.99979 98.499931 A 50 50 0 0 0 54.999744 148.49998 A 50 50 0 0 0 104.99979 198.50003 A 50 50 0 0 0 148.30103 173.5 L 129.49494 173.5 A 35 35 0 0 1 104.99979 183.49991 A 35 35 0 0 1 69.999862 148.49998 A 35 35 0 0 1 104.99979 113.50005 A 35 35 0 0 1 129.49494 123.49996 L 148.30103 123.49996 A 50 50 0 0 0 104.99979 98.499931 z " />
  </g>
  <g
     inkscape:groupmode="layer"
     id="layer3"
     inkscape:label="Drag">
    <g
       id="g352"
       inkscape:transform-center-x="-97.227182"
       transform="rotate(45,105,148.5)"
       inkscape:transform-center-y="97.227182">
      <path
         id="path136"
         style="opacity:1;fill:#ffffff;fill-opacity:0.4;stroke-width:0.264583"
         inkscape:label="DragLast"
         d="m 410,148.5 a 30,30 0 0 1 -30,30 30,30 0 0 1 -30,-30 30,30 0 0 1 30,-30 30,30 0 0 1 30,30 z" />
      <path
         d="m 145.577,148.5 c 0,7.956 -3.161,15.587 -8.787,21.213 v 0.001 c -5.626,5.625 -13.257,8.786 -21.213,8.786 h -0.001 c -7.956,0 -15.5864,-3.161 -21.2123,-8.787 h -5e-4 C 88.7374,164.087 85.5769,156.456 85.5769,148.5 v -0.001 c 2e-4,-7.956 3.1609,-15.586 8.7868,-21.212 l 5e-4,-0.001 c 5.6261,-5.625 13.2568,-8.786 21.2128,-8.786 h 0.001 c 7.956,0 15.586,3.161 21.212,8.787 h 0.001 c 5.625,5.626 8.786,13.257 8.786,21.213 z"
         style="opacity:1;fill:#ffffff;fill-opacity:0.4;stroke-width:0.264583"
         id="path328" />
      <path
         d="m 156.154,148.5 c 0,7.956 -3.161,15.587 -8.787,21.213 v 0.001 c -5.626,5.625 -13.257,8.786 -21.213,8.786 h -10e-4 c -7.956,0 -15.586,-3.161 -21.212,-8.787 H 104.94 C 99.3144,164.087 96.1538,156.456 96.1538,148.5 v -0.001 c 2e-4,-7.956 3.1609,-15.586 8.7872,-21.212 v -0.001 c 5.626,-5.625 13.257,-8.786 21.213,-8.786 h 0.001 c 7.956,0 15.586,3.161 21.212,8.787 h 0.001 c 5.625,5.626 8.786,13.257 8.786,21.213 z"
         style="opacity:1;fill:#ffffff;fill-opacity:0.4;stroke-width:0.264583"
         id="path329" />
      <path
         d="m 166.731,148.5 c 0,7.956 -3.161,15.587 -8.787,21.213 v 0.001 c -5.627,5.625 -13.257,8.786 -21.213,8.786 h -0.001 c -7.956,0 -15.587,-3.161 -21.212,-8.787 h -0.001 c -5.626,-5.626 -8.786,-13.257 -8.786,-21.213 v -0.001 c 0,-7.956 3.161,-15.586 8.787,-21.212 v -0.001 c 5.626,-5.625 13.256,-8.786 21.213,-8.786 v 0 c 7.957,0 15.587,3.161 21.213,8.787 v 0 c 5.626,5.626 8.787,13.257 8.787,21.213 z"
         style="opacity:1;fill:#ffffff;fill-opacity:0.4;stroke-width:0.264583"
         id="path330" />
      <path
         d="m 177.308,148.5 c 0,7.956 -3.161,15.587 -8.787,21.213 l -10e-4,0.001 c -5.626,5.625 -13.256,8.786 -21.212,8.786 h -0.001 c -7.956,0 -15.587,-3.161 -21.213,-8.787 v 0 c -5.626,-5.626 -8.786,-13.257 -8.786,-21.213 v -0.001 c 0,-7.956 3.161,-15.586 8.786,-21.212 l 0.001,-0.001 c 5.626,-5.625 13.256,-8.786 21.213,-8.786 v 0 c 7.957,0 15.587,3.161 21.213,8.787 v 0 c 5.626,5.626 8.787,13.257 8.787,21.213 z"
         style="opacity:1;fill:#ffffff;fill-opacity:0.4;stroke-width:0.264583"
         id="path331" />
      <path
         d="m 187.885,148.5 c 0,7.956 -3.161,15.587 -8.787,21.213 l -0.001,0.001 c -5.626,5.625 -13.256,8.786 -21.212,8.786 h -0.001 c -7.956,0 -15.587,-3.161 -21.213,-8.787 v 0 c -5.626,-5.626 -8.786,-13.257 -8.786,-21.213 v -0.001 c 0,-7.956 3.16,-15.586 8.786,-21.212 l 0.001,-0.001 c 5.626,-5.625 13.256,-8.786 21.213,-8.786 v 0 c 7.956,0 15.587,3.161 21.213,8.787 v 0 c 5.626,5.626 8.787,13.257 8.787,21.213 z"
         style="opacity:1;fill:#ffffff;fill-opacity:0.4;stroke-width:0.264583"
         id="path332" />
      <path
         d="m 198.462,148.5 c 0,7.956 -3.161,15.587 -8.787,21.213 l -0.001,0.001 c -5.626,5.625 -13.256,8.786 -21.212,8.786 h -10e-4 c -7.956,0 -15.587,-3.161 -21.213,-8.787 v 0 c -5.626,-5.626 -8.786,-13.257 -8.786,-21.213 v -0.001 c 0,-7.956 3.16,-15.586 8.786,-21.212 l 0.001,-0.001 c 5.626,-5.625 13.256,-8.786 21.213,-8.786 v 0 c 7.956,0 15.587,3.161 21.213,8.787 v 0 c 5.626,5.626 8.787,13.257 8.787,21.213 z"
         style="opacity:1;fill:#ffffff;fill-opacity:0.4;stroke-width:0.264583"
         id="path333" />
      <path
         d="m 209.038,148.5 c 0,7.956 -3.16,15.587 -8.786,21.213 l -0.001,0.001 c -5.626,5.625 -13.256,8.786 -21.213,8.786 v 0 c -7.956,0 -15.587,-3.161 -21.213,-8.787 v 0 c -5.626,-5.626 -8.787,-13.257 -8.787,-21.213 v -0.001 c 10e-4,-7.956 3.161,-15.586 8.787,-21.212 l 0.001,-0.001 c 5.626,-5.625 13.256,-8.786 21.212,-8.786 h 10e-4 c 7.956,0 15.587,3.161 21.213,8.787 v 0 c 5.626,5.626 8.786,13.257 8.786,21.213 z"
         style="opacity:1;fill:#ffffff;fill-opacity:0.4;stroke-width:0.264583"
         id="path334" />
      <path
         d="m 219.615,148.5 c 0,7.956 -3.16,15.587 -8.786,21.213 l -0.001,0.001 c -5.626,5.625 -13.256,8.786 -21.213,8.786 v 0 c -7.957,0 -15.587,-3.161 -21.213,-8.787 v 0 c -5.626,-5.626 -8.787,-13.257 -8.787,-21.213 v -0.001 c 0.001,-7.956 3.161,-15.586 8.787,-21.212 l 0.001,-0.001 c 5.626,-5.625 13.256,-8.786 21.212,-8.786 h 0.001 c 7.956,0 15.587,3.161 21.213,8.787 v 0 c 5.626,5.626 8.786,13.257 8.786,21.213 z"
         style="opacity:1;fill:#ffffff;fill-opacity:0.4;stroke-width:0.264583"
         id="path335" />
      <path
         d="m 230.192,148.5 c 0,7.956 -3.16,15.587 -8.786,21.213 l -0.001,0.001 c -5.626,5.625 -13.256,8.786 -21.213,8.786 v 0 c -7.957,0 -15.587,-3.161 -21.213,-8.787 v 0 c -5.626,-5.626 -8.787,-13.257 -8.787,-21.213 v 0 c 0,-7.957 3.161,-15.587 8.787,-21.213 v -0.001 c 5.627,-5.625 13.257,-8.786 21.213,-8.786 h 0.001 c 7.956,0 15.587,3.161 21.213,8.787 v 0 c 5.626,5.626 8.786,13.257 8.786,21.213 z"
         style="opacity:1;fill:#ffffff;fill-opacity:0.4;stroke-width:0.264583"
         id="path336" />
      <path
         d="m 240.769,148.5 c 0,7.956 -3.16,15.587 -8.787,21.213 v 0.001 c -5.626,5.625 -13.256,8.786 -21.213,8.786 v 0 c -7.957,0 -15.587,-3.161 -21.213,-8.787 v 0 c -5.626,-5.626 -8.787,-13.257 -8.787,-21.213 v 0 c 0,-7.957 3.161,-15.587 8.787,-21.213 v -0.001 c 5.626,-5.625 13.257,-8.786 21.213,-8.786 h 0.001 c 7.956,0 15.586,3.161 21.212,8.787 h 0.001 c 5.626,5.626 8.786,13.257 8.786,21.213 z"
         style="opacity:1;fill:#ffffff;fill-opacity:0.4;stroke-width:0.264583"
         id="path337" />
      <path
         d="m 251.346,148.5 c 0,7.956 -3.161,15.587 -8.787,21.213 v 0.001 c -5.626,5.625 -13.256,8.786 -21.213,8.786 h -0.001 c -7.956,0 -15.586,-3.161 -21.212,-8.787 v 0 c -5.626,-5.626 -8.787,-13.257 -8.787,-21.213 v 0 c 0,-7.957 3.161,-15.587 8.787,-21.213 v -0.001 c 5.626,-5.625 13.257,-8.786 21.213,-8.786 h 0.001 c 7.956,0 15.586,3.161 21.212,8.787 h 0.001 c 5.626,5.626 8.786,13.257 8.786,21.213 z"
         style="opacity:1;fill:#ffffff;fill-opacity:0.4;stroke-width:0.264583"
         id="path338" />
      <path
         d="m 261.923,148.5 c 0,7.956 -3.161,15.587 -8.787,21.213 v 0 c -5.626,5.626 -13.257,8.787 -21.213,8.787 h -0.001 c -7.956,0 -15.586,-3.161 -21.212,-8.787 v 0 c -5.626,-5.626 -8.787,-13.257 -8.787,-21.213 v 0 c 0,-7.957 3.161,-15.587 8.787,-21.213 v 0 c 5.626,-5.626 13.257,-8.787 21.213,-8.787 v 0 c 7.957,0 15.587,3.161 21.213,8.787 h 0.001 c 5.625,5.626 8.786,13.257 8.786,21.213 z"
         style="opacity:1;fill:#ffffff;fill-opacity:0.4;stroke-width:0.264583"
         id="path339" />
      <path
         d="m 272.5,148.5 c 0,7.956 -3.161,15.587 -8.787,21.213 v 0 c -5.626,5.626 -13.257,8.787 -21.213,8.787 h -0.001 c -7.956,0 -15.586,-3.161 -21.212,-8.787 v 0 C 215.661,164.087 212.5,156.456 212.5,148.5 v 0 c 0,-7.957 3.161,-15.587 8.787,-21.213 v 0 c 5.626,-5.626 13.257,-8.787 21.213,-8.787 v 0 c 7.957,0 15.587,3.161 21.213,8.787 v 0 c 5.626,5.626 8.787,13.257 8.787,21.213 z"
         style="opacity:1;fill:#ffffff;fill-opacity:0.4;stroke-width:0.264583"
         id="path340" />
      <path
         d="m 283.077,148.5 c 0,7.956 -3.161,15.587 -8.787,21.213 v 0 c -5.626,5.626 -13.257,8.787 -21.213,8.787 h -0.001 c -7.956,0 -15.586,-3.161 -21.212,-8.787 h -0.001 c -5.625,-5.626 -8.786,-13.257 -8.786,-21.213 v 0 c 0,-7.957 3.161,-15.587 8.787,-21.213 v 0 c 5.626,-5.626 13.257,-8.787 21.213,-8.787 v 0 c 7.957,0 15.587,3.161 21.213,8.787 v 0 c 5.626,5.626 8.787,13.257 8.787,21.213 z"
         style="opacity:1;fill:#ffffff;fill-opacity:0.4;stroke-width:0.264583"
         id="path341" />
      <path
         d="m 293.654,148.5 c 0,7.956 -3.161,15.587 -8.787,21.213 v 0 c -5.626,5.626 -13.257,8.787 -21.213,8.787 h -10e-4 c -7.956,0 -15.586,-3.161 -21.212,-8.787 h -0.001 c -5.626,-5.626 -8.786,-13.257 -8.786,-21.213 v 0 c 0,-7.957 3.161,-15.587 8.787,-21.213 v 0 c 5.626,-5.626 13.256,-8.787 21.213,-8.787 v 0 c 7.957,0 15.587,3.161 21.213,8.787 v 0 c 5.626,5.626 8.787,13.257 8.787,21.213 z"
         style="opacity:1;fill:#ffffff;fill-opacity:0.4;stroke-width:0.264583"
         id="path342" />
      <path
         d="m 304.231,148.5 c 0,7.956 -3.161,15.587 -8.787,21.213 v 0 c -5.626,5.626 -13.257,8.787 -21.213,8.787 h -10e-4 c -7.956,0 -15.587,-3.161 -21.212,-8.787 h -0.001 c -5.626,-5.626 -8.786,-13.257 -8.786,-21.213 v 0 c 0,-7.957 3.161,-15.587 8.787,-21.213 v 0 c 5.626,-5.626 13.256,-8.787 21.213,-8.787 v 0 c 7.956,0 15.587,3.161 21.213,8.787 v 0 c 5.626,5.626 8.787,13.257 8.787,21.213 z"
         style="opacity:1;fill:#ffffff;fill-opacity:0.4;stroke-width:0.264583"
         id="path343" />
      <path
         d="m 314.808,148.5 c 0,7.956 -3.161,15.587 -8.787,21.213 v 0 c -5.626,5.626 -13.257,8.787 -21.213,8.787 h -10e-4 c -7.956,0 -15.587,-3.161 -21.213,-8.787 v 0 c -5.626,-5.626 -8.786,-13.257 -8.786,-21.213 v 0 c 0,-7.957 3.16,-15.587 8.786,-21.213 h 0.001 c 5.626,-5.626 13.256,-8.787 21.213,-8.787 v 0 c 7.956,0 15.587,3.161 21.213,8.787 v 0 c 5.626,5.626 8.787,13.257 8.787,21.213 z"
         style="opacity:1;fill:#ffffff;fill-opacity:0.4;stroke-width:0.264583"
         id="path344" />
      <path
         d="m 325.385,148.5 c 0,7.956 -3.161,15.587 -8.787,21.213 v 0 c -5.626,5.626 -13.257,8.787 -21.213,8.787 h -10e-4 c -7.956,0 -15.587,-3.161 -21.213,-8.787 v 0 c -5.626,-5.626 -8.786,-13.257 -8.786,-21.213 v 0 c 0,-7.957 3.16,-15.587 8.786,-21.213 h 0.001 c 5.626,-5.626 13.256,-8.787 21.213,-8.787 v 0 c 7.956,0 15.587,3.161 21.213,8.787 v 0 c 5.626,5.626 8.787,13.257 8.787,21.213 z"
         style="opacity:1;fill:#ffffff;fill-opacity:0.4;stroke-width:0.264583"
         id="path345" />
      <path
         d="m 335.962,148.5 c 0,7.956 -3.161,15.587 -8.787,21.213 v 0 c -5.626,5.626 -13.257,8.787 -21.213,8.787 h -10e-4 c -7.956,0 -15.587,-3.161 -21.213,-8.787 v 0 c -5.626,-5.626 -8.786,-13.257 -8.786,-21.213 v 0 c 0,-7.957 3.16,-15.587 8.786,-21.213 v 0 c 5.627,-5.626 13.257,-8.787 21.214,-8.787 v 0 c 7.956,0 15.587,3.161 21.213,8.787 v 0 c 5.626,5.626 8.787,13.257 8.787,21.213 z"
         style="opacity:1;fill:#ffffff;fill-opacity:0.4;stroke-width:0.264583"
         id="path346" />
      <path
         d="m 346.538,148.5 c 0,7.956 -3.16,15.587 -8.786,21.213 v 0 c -5.627,5.626 -13.257,8.787 -21.214,8.787 v 0 c -7.956,0 -15.587,-3.161 -21.213,-8.787 v 0 c -5.626,-5.626 -8.787,-13.257 -8.787,-21.213 v 0 c 10e-4,-7.957 3.161,-15.587 8.787,-21.213 v 0 c 5.626,-5.626 13.257,-8.787 21.213,-8.787 h 10e-4 c 7.956,0 15.587,3.161 21.213,8.787 v 0 c 5.626,5.626 8.786,13.257 8.786,21.213 z"
         style="opacity:1;fill:#ffffff;fill-opacity:0.4;stroke-width:0.264583"
         id="path347" />
      <path
         d="m 357.115,148.5 c 0,7.956 -3.16,15.587 -8.786,21.213 h -0.001 c -5.626,5.626 -13.256,8.787 -21.213,8.787 v 0 c -7.957,0 -15.587,-3.161 -21.213,-8.787 v 0 c -5.626,-5.626 -8.787,-13.257 -8.787,-21.213 v 0 c 0,-7.957 3.161,-15.587 8.787,-21.213 v 0 c 5.626,-5.626 13.257,-8.787 21.213,-8.787 h 10e-4 c 7.956,0 15.587,3.161 21.213,8.787 v 0 c 5.626,5.626 8.786,13.257 8.786,21.213 z"
         style="opacity:1;fill:#ffffff;fill-opacity:0.4;stroke-width:0.264583"
         id="path348" />
      <path
         d="m 367.692,148.5 c 0,7.956 -3.16,15.587 -8.786,21.213 h -0.001 c -5.626,5.626 -13.256,8.787 -21.213,8.787 v 0 c -7.957,0 -15.587,-3.161 -21.213,-8.787 v 0 c -5.626,-5.626 -8.787,-13.257 -8.787,-21.213 v 0 c 0,-7.957 3.161,-15.587 8.787,-21.213 v 0 c 5.626,-5.626 13.257,-8.787 21.213,-8.787 v 0 c 7.957,0 15.587,3.161 21.214,8.787 v 0 c 5.626,5.626 8.786,13.257 8.786,21.213 z"
         style="opacity:1;fill:#ffffff;fill-opacity:0.4;stroke-width:0.264583"
         id="path349" />
      <path
         d="m 378.269,148.5 c 0,7.956 -3.16,15.587 -8.787,21.213 v 0 c -5.626,5.626 -13.256,8.787 -21.213,8.787 v 0 c -7.957,0 -15.587,-3.161 -21.213,-8.787 v 0 c -5.626,-5.626 -8.787,-13.257 -8.787,-21.213 v 0 c 0,-7.957 3.161,-15.587 8.787,-21.213 v 0 c 5.626,-5.626 13.257,-8.787 21.213,-8.787 v 0 c 7.957,0 15.587,3.161 21.213,8.787 v 0 c 5.627,5.626 8.787,13.257 8.787,21.213 z"
         style="opacity:1;fill:#ffffff;fill-opacity:0.4;stroke-width:0.264583"
         id="path350" />
      <path
         d="m 388.846,148.5 c 0,7.956 -3.161,15.587 -8.787,21.213 v 0 c -5.626,5.626 -13.256,8.787 -21.213,8.787 h -10e-4 c -7.956,0 -15.586,-3.161 -21.212,-8.787 v 0 c -5.626,-5.626 -8.787,-13.257 -8.787,-21.213 v 0 c 0,-7.957 3.161,-15.587 8.787,-21.213 v 0 c 5.626,-5.626 13.257,-8.787 21.213,-8.787 v 0 c 7.957,0 15.587,3.161 21.213,8.787 v 0 c 5.626,5.626 8.787,13.257 8.787,21.213 z"
         style="opacity:1;fill:#ffffff;fill-opacity:0.4;stroke-width:0.264583"
         id="path351" />
      <path
         d="m 399.423,148.5 c 0,7.956 -3.161,15.587 -8.787,21.213 v 0 c -5.626,5.626 -13.256,8.787 -21.213,8.787 h -10e-4 c -7.956,0 -15.586,-3.161 -21.212,-8.787 v 0 c -5.626,-5.626 -8.787,-13.257 -8.787,-21.213 v 0 c 0,-7.957 3.161,-15.587 8.787,-21.213 v 0 c 5.626,-5.626 13.257,-8.787 21.213,-8.787 v 0 c 7.957,0 15.587,3.161 21.213,8.787 v 0 c 5.626,5.626 8.787,13.257 8.787,21.213 z"
         style="opacity:1;fill:#ffffff;fill-opacity:0.4;stroke-width:0.264583"
         id="path352" />
      <path
         id="path4"
         style="opacity:1;fill:#ffffff;fill-opacity:0.60000002;stroke-width:0.264583"
         inkscape:label="DragFirst (has higher opacity)"
         d="m 135,148.5 a 30,30 0 0 1 -30,30 30,30 0 0 1 -30,-30 30,30 0 0 1 30,-30 30,30 0 0 1 30,30 z" />
    </g>
  </g>
</svg>
