<svg xmlns="http://www.w3.org/2000/svg" width="1297" height="1450" viewBox="-120 -120 1537 1690" version="1.1"><path d="M 978 31.057 C 929.056 33.117, 904.558 39.186, 879.456 55.469 C 872.018 60.293, 870.812 60.741, 863.456 61.401 C 843.198 63.218, 813.388 70.500, 792.500 78.731 C 750.782 95.173, 695.903 128.629, 671.791 152.320 L 660.259 163.650 650.357 166.789 C 642.799 169.185, 635.338 172.867, 618.837 182.340 C 595.084 195.979, 591.669 198.177, 578.612 208.223 C 570.858 214.189, 569.500 214.898, 567.960 213.781 C 553.598 203.361, 545.514 199.328, 532.122 195.903 C 521.736 193.247, 502.186 193.267, 491.717 195.945 C 487.535 197.014, 480.376 198.400, 475.807 199.025 C 443.757 203.407, 400.207 216.063, 359 232.969 C 349.375 236.918, 335.425 242.521, 328 245.421 C 275.322 265.993, 263.426 272.174, 231 295.819 C 222.047 302.348, 198.839 325.677, 191.524 335.500 C 188.657 339.350, 182.634 347.450, 178.139 353.500 C 173.644 359.550, 168.146 368.325, 165.921 373 C 160.287 384.839, 160.537 384.442, 150.324 397.758 C 138.234 413.522, 129.969 426.321, 113.037 455.500 C 97.983 481.442, 75.869 528.934, 62.980 563 C 32.919 642.449, 14.863 719.685, 9.444 792 C 7.442 818.723, 7.068 886.190, 8.809 906.723 C 11.065 933.334, 17.572 963.234, 27.244 991.435 C 30.464 1000.821, 34.165 1012.325, 35.470 1017 C 39.062 1029.870, 43.689 1041.208, 48.190 1048.173 C 54.984 1058.684, 84.644 1086.943, 111.250 1108.254 C 128.866 1122.364, 130 1123.475, 130 1126.624 C 130 1132.304, 135.973 1158.840, 140.184 1171.866 C 144.591 1185.499, 156.191 1209.230, 165.367 1223.382 C 175.542 1239.076, 196.211 1265.214, 206.421 1275.301 C 220.679 1289.385, 236.534 1299.283, 253.298 1304.568 C 257.830 1305.997, 258.907 1306.873, 261.507 1311.255 C 266.463 1319.605, 280.323 1332.696, 293.814 1341.768 C 316.388 1356.949, 348.612 1371.223, 369.732 1375.396 C 391.250 1379.648, 401.879 1380.502, 432 1380.401 C 460.058 1380.306, 462.135 1380.168, 474.500 1377.578 C 481.650 1376.080, 491.550 1374.022, 496.500 1373.005 C 511.113 1370.002, 529.832 1362.206, 548.728 1351.253 L 560.956 1344.165 569.728 1345.701 C 589.334 1349.133, 625.288 1345.342, 648.078 1337.438 C 662.003 1332.608, 693.866 1319.138, 707.500 1312.318 C 721.550 1305.288, 736.816 1295.295, 742.609 1289.334 L 747.134 1284.678 754.817 1287.494 C 796.143 1302.642, 800.346 1303.512, 832 1303.459 C 858.363 1303.416, 861.272 1303.016, 883 1296.459 C 887.675 1295.048, 894.650 1293.234, 898.500 1292.427 C 930.445 1285.734, 962.147 1268.575, 985.927 1245.107 C 998.351 1232.845, 1005.012 1224.440, 1015.953 1207.217 L 1022.656 1196.664 1034.806 1193.472 C 1059.527 1186.977, 1077.760 1178.946, 1120.500 1155.725 C 1155.963 1136.458, 1201.281 1103.012, 1217.204 1084.355 C 1237.054 1061.097, 1243.268 1051.182, 1249.074 1033.500 L 1252.357 1023.500 1252.586 971 C 1252.913 896.283, 1251.503 867.787, 1245.461 827 C 1242.430 806.536, 1230.638 745.854, 1224.669 720 L 1223.399 714.500 1227.370 708 C 1232.809 699.098, 1251.174 661.157, 1254.381 652.198 C 1257.499 643.487, 1264.278 617.395, 1266.038 607.329 C 1267.260 600.340, 1267.225 600.030, 1264.646 595.097 C 1262.604 591.192, 1262 588.606, 1262 583.768 C 1262 577.443, 1264.573 559.826, 1267.515 546 C 1271.854 525.613, 1274.019 504.487, 1275.098 472 C 1275.692 454.125, 1275.904 435, 1275.569 429.500 C 1275.234 424, 1274.240 409.150, 1273.361 396.500 C 1272.366 382.168, 1271.691 357.672, 1271.571 331.500 L 1271.379 289.500 1267.163 276.500 C 1261.715 259.697, 1254.730 231.369, 1251.506 213 C 1250.106 205.025, 1248.507 196.830, 1247.952 194.790 C 1246.346 188.882, 1240.249 178.794, 1216.046 142 C 1203.564 123.025, 1188.972 100.455, 1183.620 91.845 C 1176.675 80.670, 1173.231 76.024, 1171.588 75.611 C 1170.322 75.294, 1165.393 74.734, 1160.635 74.369 L 1151.983 73.704 1145.742 67.669 C 1124.016 46.662, 1085.917 33.235, 1041.637 30.980 C 1021.346 29.947, 1003.875 29.968, 978 31.057 M 975 106.080 C 962.397 106.870, 949.875 108.266, 940.305 109.949 C 932.880 111.254, 916.660 119.265, 914.066 122.908 C 912.908 124.533, 910.804 129.381, 909.389 133.681 C 907.059 140.763, 906.851 142.682, 907.188 154.037 C 907.530 165.547, 907.785 166.957, 910.302 171.253 C 915.524 180.162, 921.004 182.623, 943.038 185.954 C 957.398 188.124, 973.764 188.601, 981.701 187.080 C 984.340 186.574, 989.200 185.638, 992.500 185 C 996.937 184.142, 1002.408 184.113, 1013.500 184.889 C 1025.990 185.762, 1030.341 185.672, 1039.500 184.351 C 1045.550 183.478, 1051.400 182.797, 1052.500 182.838 C 1072.019 183.554, 1078.065 182.786, 1085.759 178.617 C 1087.267 177.800, 1089.749 176.866, 1091.275 176.540 C 1095.223 175.700, 1101.701 169.491, 1104.817 163.563 C 1107.181 159.066, 1107.480 157.382, 1107.489 148.500 C 1107.502 137.025, 1105.719 131.940, 1100.791 129.392 C 1099.174 128.556, 1097.399 126.574, 1096.846 124.988 C 1094.307 117.706, 1069.062 108.456, 1045.144 106.044 C 1033.503 104.870, 993.985 104.891, 975 106.080 M 1084.948 134.386 C 1084.698 134.636, 1077.017 135.551, 1067.880 136.419 C 1054.993 137.645, 1044.902 137.862, 1022.883 137.389 C 997.904 136.852, 991.502 137.056, 969.500 139.096 C 955.750 140.371, 940.035 141.433, 934.578 141.457 C 924.688 141.500, 924.653 141.509, 923.936 144.169 C 923.540 145.637, 923.055 149.912, 922.858 153.669 L 922.500 160.500 932 160.212 C 937.290 160.052, 945.267 158.994, 950 157.824 C 957.686 155.925, 960.383 155.779, 978.162 156.294 C 994.004 156.753, 999.055 156.563, 1004.162 155.314 C 1013.864 152.941, 1033.510 153.165, 1043.500 155.764 C 1049.909 157.430, 1053.307 157.734, 1060.586 157.293 C 1068.166 156.833, 1070.919 157.111, 1077.189 158.972 C 1088.847 162.433, 1088.500 162.785, 1088.500 147.500 C 1088.500 136.582, 1088.255 134.480, 1086.951 134.229 C 1086.099 134.065, 1085.198 134.135, 1084.948 134.386 M 854.639 138.580 C 834.918 142.347, 817.365 148.694, 795.500 159.962 C 772.704 171.711, 760.620 178.793, 743.419 190.487 C 726.823 201.769, 726.835 201.759, 719.778 209.740 C 710.598 220.121, 709.652 222.530, 710.263 233.953 C 710.819 244.345, 712.139 248.379, 716.988 254.500 C 721.503 260.200, 726.985 263.563, 736.694 266.589 C 744.561 269.041, 745.599 269.142, 751.307 268.019 C 754.686 267.355, 759.090 265.974, 761.094 264.952 C 763.098 263.930, 770.534 260.804, 777.619 258.006 C 784.704 255.208, 792.571 251.475, 795.103 249.709 C 809.013 240.012, 814.890 236.512, 819.918 234.931 C 834.622 230.308, 845.914 224.297, 855.535 215.970 C 858.058 213.786, 860.657 212, 861.311 211.999 C 863.483 211.998, 874.449 206.352, 877.840 203.490 C 879.677 201.939, 883.052 198.234, 885.340 195.257 C 887.628 192.279, 890.737 188.236, 892.250 186.273 C 894.604 183.217, 895 181.763, 895 176.183 C 895 164.312, 893.223 157.478, 888.230 150.149 C 885.739 146.492, 883.137 141.925, 882.447 140 L 881.193 136.500 874.346 136.312 C 870.432 136.204, 861.992 137.176, 854.639 138.580 M 1141.909 148.903 C 1138.039 149.690, 1120.715 158.230, 1117.605 160.883 C 1116.562 161.772, 1114.871 164.373, 1113.846 166.663 C 1112.109 170.545, 1112.076 171.494, 1113.363 180.702 C 1114.845 191.300, 1116.805 196.114, 1123.119 204.661 C 1125.581 207.993, 1128.070 213.315, 1130.033 219.446 C 1132.148 226.048, 1134.787 231.542, 1138.528 237.132 C 1142.634 243.265, 1144.222 246.710, 1145.050 251.275 C 1146.428 258.873, 1149.090 265.953, 1153.220 273 C 1155.170 276.328, 1156.910 281.164, 1157.626 285.246 C 1158.901 292.521, 1163.336 302.951, 1167.445 308.339 C 1168.850 310.181, 1170 312.771, 1170.001 314.094 C 1170.002 316.819, 1175.216 328.398, 1176.916 329.448 C 1177.529 329.827, 1178.639 331.568, 1179.383 333.318 C 1181.275 337.766, 1188.385 345.524, 1191.716 346.774 C 1193.247 347.349, 1198.636 348.615, 1203.690 349.588 C 1212.533 351.291, 1213.033 351.289, 1216.911 349.540 C 1219.127 348.541, 1221.699 346.885, 1222.625 345.861 C 1223.552 344.838, 1224.820 344, 1225.443 344 C 1227.639 344, 1235.919 334.432, 1238.424 329 C 1242.380 320.420, 1243.298 314.008, 1242.721 299.011 C 1242.007 280.471, 1236.539 259.096, 1226.695 236.362 C 1221.566 224.516, 1205.594 193.758, 1200.591 186.094 C 1190.604 170.792, 1178.878 157.868, 1171.259 153.765 C 1164.198 149.962, 1149.043 147.452, 1141.909 148.903 M 864.500 156.111 C 853.031 164.953, 829.546 179.316, 814.217 186.862 C 795.742 195.957, 771.527 210.273, 754 222.461 C 747.707 226.837, 735.742 232.939, 728.750 235.337 C 727.788 235.667, 727 236.874, 727 238.018 C 727 242.427, 733.709 252, 736.798 252 C 739.333 252, 754.332 242.322, 763.030 235.073 C 772.982 226.781, 780.791 222.526, 794.500 217.929 C 800 216.085, 806.975 212.923, 810 210.902 C 818.260 205.384, 832.604 198.445, 840.634 196.083 C 844.558 194.929, 848.383 193.235, 849.134 192.320 C 851.935 188.907, 862.158 183.179, 868.527 181.455 C 875.475 179.574, 879.009 176.588, 878.989 172.615 C 878.974 169.625, 871.324 153.549, 869.780 153.263 C 869.076 153.133, 866.700 154.414, 864.500 156.111 M 1136.194 166.078 C 1132.175 168.307, 1128.635 170.789, 1128.326 171.594 C 1127.983 172.487, 1129.786 175.195, 1132.954 178.545 C 1136.289 182.071, 1139.513 186.995, 1141.972 192.317 C 1144.077 196.873, 1147.824 202.973, 1150.299 205.873 C 1156.335 212.945, 1160.422 220.952, 1162.574 229.923 C 1163.553 234.006, 1165.849 239.829, 1167.676 242.863 C 1172.138 250.272, 1175.065 258.335, 1175.714 265 C 1176.059 268.546, 1177.266 272.186, 1179.112 275.245 C 1182.954 281.613, 1185.910 290.689, 1186.610 298.270 C 1186.927 301.697, 1188.044 307.089, 1189.093 310.254 C 1190.142 313.419, 1191.022 317.919, 1191.048 320.254 C 1191.111 325.855, 1193.793 331.127, 1197.504 332.944 C 1202.307 335.297, 1213.196 335.573, 1216.473 333.426 C 1218.914 331.826, 1219.132 331.227, 1218.563 327.667 C 1218.213 325.481, 1217.082 320.950, 1216.048 317.597 C 1215.015 314.243, 1213.196 307, 1212.005 301.500 C 1205.063 269.421, 1203.038 262.986, 1193.119 241.490 C 1186.507 227.161, 1167.617 191.912, 1161.492 182.475 C 1158.628 178.061, 1155.561 173.052, 1154.678 171.345 C 1152.016 166.196, 1147.960 161.999, 1145.661 162.013 C 1144.472 162.020, 1140.212 163.850, 1136.194 166.078 M 672 238.885 C 663.045 242.451, 636.141 259.175, 620.011 271.204 C 598.689 287.104, 589.089 295.634, 582.524 304.511 C 579.601 308.464, 575.160 314.005, 572.656 316.825 C 570.151 319.645, 565.536 325.808, 562.400 330.521 C 558.801 335.930, 556.138 338.980, 555.177 338.794 C 554.254 338.616, 552.230 334.563, 550.035 328.500 C 546.982 320.063, 541.064 307.985, 526.272 280 C 522.982 273.775, 519.262 270.159, 514.763 268.811 C 511.371 267.795, 510.614 267.909, 508.012 269.833 C 505.894 271.399, 503.613 272.009, 499.790 272.031 C 477.768 272.159, 430.679 284.840, 389.707 301.676 C 379.693 305.791, 366.325 311.160, 360 313.606 C 353.675 316.053, 345.350 319.361, 341.500 320.956 C 337.650 322.552, 330.450 325.523, 325.500 327.560 C 308.522 334.544, 302.478 337.723, 289.500 346.494 C 272.957 357.674, 266.401 363.022, 261.904 369.006 C 259.927 371.637, 256.752 375.156, 254.851 376.826 C 252.949 378.496, 250.104 382.256, 248.529 385.181 C 246.953 388.107, 243.256 393.123, 240.313 396.328 C 233.906 403.305, 231.440 407.858, 230.456 414.523 C 229.849 418.639, 228.735 420.625, 224.025 426 C 212.352 439.321, 197.308 460.151, 188.534 475.141 C 169.893 506.987, 159.076 528.444, 143.922 563.632 C 136.798 580.172, 135.484 583.578, 125.251 612 C 114.603 641.577, 102.910 681.737, 98.027 705.500 C 97.575 707.700, 96.276 713.852, 95.141 719.171 C 86.012 761.954, 81.187 818.582, 82.332 869.500 C 82.654 883.800, 83.411 899.775, 84.015 905 C 86.672 927.975, 95.425 963.233, 102.084 977.781 C 105.515 985.279, 108.967 995.546, 108.987 998.312 C 109.015 1002.165, 112.250 1009.944, 114.064 1010.520 C 115.085 1010.844, 121.900 1017.063, 129.210 1024.340 C 143.432 1038.499, 171.933 1061.436, 190.500 1073.665 C 196.550 1077.650, 202.355 1081.518, 203.400 1082.262 C 205.199 1083.542, 205.228 1084.059, 203.957 1091.889 C 202.173 1102.875, 203.738 1118.788, 208.453 1137.586 C 213.809 1158.940, 221.749 1173.855, 243.959 1204.281 C 258.619 1224.365, 270.211 1233.286, 281.638 1233.282 C 287.078 1233.280, 297.817 1229.377, 307.643 1223.832 C 314.626 1219.891, 315.450 1217.590, 314.675 1204.189 C 313.684 1187.058, 309.402 1174.636, 298.896 1158.419 C 292.167 1148.032, 283.674 1130.291, 284.456 1128.254 C 285.217 1126.270, 286.832 1126.682, 299.538 1132.104 C 328.091 1144.288, 356.517 1151.797, 386.340 1155.036 C 402.727 1156.816, 411.781 1155.567, 427.279 1149.387 C 435.568 1146.082, 436.627 1145.300, 446.237 1135.401 C 457.709 1123.583, 457.517 1123.838, 467.121 1107.692 C 478.354 1088.809, 486.027 1070.649, 490.019 1053.500 C 494.408 1034.645, 494.468 1034.485, 497.089 1034.675 C 498.415 1034.771, 509.400 1037.350, 521.500 1040.405 C 564.612 1051.293, 605.292 1058.028, 637 1059.527 C 648.479 1060.070, 677.515 1058.036, 679.973 1056.517 C 681.506 1055.569, 691.121 1058.151, 691.702 1059.667 C 692.013 1060.476, 691.419 1065.269, 690.383 1070.319 C 687.483 1084.459, 687.917 1097.104, 691.731 1109.500 C 693.422 1115, 695.585 1123.100, 696.536 1127.500 C 697.488 1131.900, 699.958 1138.875, 702.027 1143 C 704.096 1147.125, 706.119 1151.625, 706.524 1153 C 709.023 1161.498, 719.628 1177.632, 727.358 1184.696 C 734.102 1190.859, 746.209 1199.405, 755 1204.206 C 774.087 1214.630, 773.146 1214.218, 803 1225.274 C 811.425 1228.394, 811.667 1228.422, 830.500 1228.430 L 849.500 1228.438 862.500 1224.304 C 869.650 1222.031, 877.525 1219.869, 880 1219.500 C 891.396 1217.803, 909.716 1210.087, 920.918 1202.267 C 941.404 1187.965, 957.808 1163.761, 968.540 1132 C 972.186 1121.210, 971.623 1121.512, 983.500 1123.971 C 994.189 1126.183, 1011.706 1123.243, 1032 1115.832 C 1041.563 1112.340, 1088.177 1088.344, 1100 1080.828 C 1116.299 1070.465, 1125.495 1064.164, 1136 1056.160 C 1153.374 1042.923, 1157.371 1039.383, 1162.717 1032.500 C 1165.280 1029.200, 1169.031 1024.663, 1171.053 1022.419 C 1173.075 1020.174, 1175.742 1015.674, 1176.979 1012.419 C 1179.025 1007.037, 1179.114 1006.047, 1177.966 1001.500 C 1177.146 998.251, 1176.843 991.948, 1177.102 983.500 C 1178.149 949.310, 1177.378 890.314, 1175.665 873.500 C 1173.002 847.368, 1168.451 817.897, 1164.006 798 C 1162.962 793.325, 1161.198 784.550, 1160.087 778.500 C 1157.113 762.304, 1152.201 738.569, 1150.048 730 C 1146.052 714.087, 1144.699 708.302, 1143.682 702.782 L 1142.630 697.064 1147.319 691.282 C 1156.768 679.631, 1164.456 667.068, 1173.497 648.500 C 1183.627 627.695, 1183.977 626.818, 1187.666 613 C 1191.185 599.822, 1193 591.071, 1193 587.288 C 1193 581.829, 1189.028 572.801, 1184.865 568.797 C 1179.136 563.287, 1164.058 556.241, 1155.150 554.912 C 1146.579 553.633, 1142.035 554.257, 1136.500 557.474 C 1131.953 560.116, 1122.064 570.169, 1117.004 577.293 C 1111.649 584.831, 1110.520 583.995, 1104.462 568 C 1101.650 560.575, 1097.921 551.275, 1096.175 547.332 C 1094.429 543.390, 1093 539.836, 1093 539.434 C 1093 538.147, 1078.969 505.947, 1072.549 492.500 C 1066.861 480.585, 1060.687 469.387, 1051.872 454.995 C 1039.668 435.073, 1016.962 411.536, 990.653 391.539 C 987.075 388.819, 986.849 388.347, 987.418 384.787 C 987.825 382.239, 987.515 379.962, 986.489 377.978 C 982.967 371.167, 967.573 357.907, 952.500 348.700 C 942.420 342.543, 918.225 333.960, 896 328.658 C 845.658 316.648, 836.201 315.015, 816.924 315.006 C 798.608 314.997, 774.184 318.608, 770.552 321.862 C 769.423 322.873, 766.250 325.179, 763.500 326.986 C 756.745 331.425, 743.685 344.251, 739.047 351 C 736.969 354.025, 733.178 360.662, 730.624 365.750 C 728.070 370.837, 725.394 375, 724.678 375 C 723.962 375, 719.977 374.109, 715.821 373.021 C 702.219 369.458, 688.925 368.006, 660.500 366.977 C 645.100 366.420, 631.904 365.749, 631.176 365.485 C 629.013 364.702, 630.235 362.359, 634.649 358.823 C 636.931 356.996, 643.231 351.922, 648.649 347.549 C 654.067 343.176, 663.900 335.337, 670.500 330.129 C 684.691 318.931, 699.709 304.061, 702.464 298.479 C 703.545 296.291, 706.132 292.598, 708.214 290.272 C 711.392 286.723, 712 285.332, 712 281.603 C 712 270.884, 705.128 254.364, 698.793 249.853 C 697.049 248.611, 693.579 247.076, 691.081 246.442 C 687.095 245.430, 686.457 244.887, 685.869 242.015 C 685.501 240.215, 684.592 238.357, 683.850 237.886 C 681.714 236.533, 676.886 236.940, 672 238.885 M 1052.604 258.729 C 1050.968 260.365, 946.581 262.220, 936.500 260.792 C 933.121 260.313, 936.200 261.644, 946 264.896 C 971.031 273.205, 982.028 278.138, 996.895 287.724 C 1010.037 296.199, 1016.197 301.254, 1029.524 314.504 C 1042.140 327.047, 1049.488 336.099, 1053.545 344.094 C 1054.827 346.621, 1056.916 349.374, 1058.188 350.212 C 1061.479 352.380, 1090.830 381.668, 1094.907 386.851 L 1098.313 391.183 1100.592 383.342 C 1101.845 379.029, 1104.045 372.398, 1105.481 368.606 L 1108.091 361.712 1103.964 352.106 C 1101.694 346.823, 1097.665 338, 1095.010 332.500 C 1092.355 327, 1089.170 319.125, 1087.932 315 C 1086.694 310.875, 1083.537 302.325, 1080.915 296 C 1078.294 289.675, 1075.469 282.151, 1074.638 279.281 C 1073.806 276.411, 1071.298 270.985, 1069.063 267.223 C 1066.828 263.461, 1065 259.847, 1065 259.192 C 1065 257.875, 1053.874 257.459, 1052.604 258.729 M 666.324 273.046 C 658.392 281.873, 651.975 287.752, 642.308 295.051 C 635.053 300.530, 624.928 308.512, 619.808 312.789 C 614.689 317.067, 608.475 321.963, 606 323.670 C 603.525 325.377, 597 330.997, 591.500 336.160 C 586 341.323, 578.462 347.713, 574.750 350.361 C 569.967 353.772, 568 355.808, 568 357.347 C 568 358.541, 569.913 362.889, 572.250 367.009 C 577.330 375.963, 580.049 377.211, 582.370 371.656 C 587.239 360.004, 599.201 346.252, 618.500 330.120 C 649.626 304.101, 666.059 292.160, 678.621 286.430 C 682.955 284.454, 687.175 282.490, 688 282.066 C 688.876 281.616, 689.628 279.571, 689.808 277.147 C 690.087 273.374, 689.635 272.451, 684.835 266.998 C 681.931 263.699, 679.013 261, 678.351 261 C 677.689 261, 672.277 266.420, 666.324 273.046 M 489.500 298.467 C 481.250 301.920, 470 306.642, 464.500 308.962 C 459 311.281, 452.700 313.761, 450.500 314.472 C 432.386 320.330, 400.035 332.510, 375.884 342.565 C 355.497 351.054, 310.476 368.739, 307.500 369.428 C 305.850 369.810, 300.169 372.564, 294.875 375.547 C 289.582 378.530, 282.269 382.309, 278.625 383.944 L 272 386.916 272 391.610 C 272 395.327, 271.091 397.884, 267.627 403.902 C 265.222 408.081, 261.345 415.325, 259.011 420 C 256.677 424.675, 250.169 436.150, 244.549 445.500 C 238.930 454.850, 232.747 465.200, 230.809 468.500 C 228.872 471.800, 224.920 478.325, 222.027 483 C 210.154 502.187, 189.820 540.728, 178.500 565.500 C 171.346 581.156, 156.795 619.094, 150.693 638 C 130.998 699.020, 119.869 753.673, 115.870 809 C 114.344 830.114, 114.354 883.207, 115.887 902 C 116.538 909.975, 117.754 924.532, 118.591 934.349 C 119.428 944.167, 120.554 959.692, 121.093 968.849 C 122.131 986.476, 122.780 994.091, 123.552 997.724 C 123.914 999.426, 127.482 1001.700, 138.762 1007.421 C 146.868 1011.531, 158.675 1017.973, 165 1021.735 C 171.325 1025.497, 181.900 1031.629, 188.500 1035.362 C 195.100 1039.094, 208.375 1046.841, 218 1052.576 C 237.053 1063.929, 244.113 1067.653, 248.070 1068.438 C 249.483 1068.718, 252.233 1070.495, 254.181 1072.387 C 259.233 1077.294, 303.077 1098.999, 322.500 1106.209 C 335.049 1110.867, 350.595 1115.545, 361.500 1117.944 C 367 1119.154, 374.875 1121.228, 379 1122.552 C 393.782 1127.298, 429.727 1134.730, 431.018 1133.307 C 432.291 1131.906, 436.877 1116.977, 440.021 1104 C 445.999 1079.323, 450.780 1068.610, 464.223 1049.767 C 472.900 1037.605, 476.096 1030.949, 474.477 1028.411 C 473.939 1027.569, 467.200 1024.700, 459.500 1022.036 C 441.476 1015.798, 435.981 1013.448, 422.098 1006.043 C 405.039 996.942, 399.693 993.476, 395.195 988.595 C 389.789 982.731, 384.794 972.778, 385.193 968.665 C 385.464 965.869, 385.896 965.462, 388.903 965.175 C 391.105 964.965, 393.223 965.528, 394.903 966.770 C 399.223 969.964, 403.602 971.928, 409.700 973.406 C 415.391 974.785, 445.142 982.928, 454 985.530 C 456.475 986.257, 467.050 989.785, 477.500 993.370 C 501.303 1001.535, 521.781 1007.182, 552.500 1014.053 C 592.047 1022.897, 614.946 1025.986, 664.500 1029.161 C 675.500 1029.866, 687.847 1030.455, 691.938 1030.471 L 699.376 1030.500 703.938 1021.925 C 718.026 995.442, 723.396 987.948, 740.185 971.334 C 751.790 959.850, 756.109 956.278, 763 952.470 C 767.675 949.887, 774.230 946.253, 777.566 944.396 C 785.774 939.826, 794.190 936.944, 802 936.029 C 805.575 935.609, 812.937 934.306, 818.360 933.133 C 831.986 930.185, 845.135 930.296, 860.159 933.485 C 866.571 934.846, 872.871 936.395, 874.159 936.926 C 875.446 937.458, 879.067 938.598, 882.204 939.461 C 886.264 940.577, 892.749 944.275, 904.704 952.290 C 927.622 967.655, 931.237 970.485, 936.867 977.461 C 942.130 983.982, 958.877 1012.611, 963.331 1022.700 C 966.924 1030.841, 972.296 1054.029, 975.013 1073.131 C 975.454 1076.228, 975.440 1086.128, 974.981 1095.131 C 974.493 1104.720, 974.521 1111.882, 975.047 1112.423 C 976.282 1113.691, 979.186 1112.243, 994.464 1102.737 C 1001.634 1098.277, 1011.100 1092.402, 1015.500 1089.682 C 1019.900 1086.962, 1033.326 1079.601, 1045.336 1073.324 C 1085.426 1052.370, 1095.679 1045.875, 1127.131 1021.510 C 1133.528 1016.555, 1141.403 1010.803, 1144.631 1008.728 C 1147.859 1006.654, 1152.575 1003.504, 1155.110 1001.728 C 1157.646 999.953, 1160.534 998.024, 1161.528 997.443 C 1163.524 996.276, 1163.705 997.722, 1157.896 968.500 C 1155.262 955.253, 1155.204 954.929, 1150.659 928.500 C 1146.844 906.310, 1146.218 901.881, 1142.966 874 C 1141.131 858.271, 1137.847 835.936, 1134.952 819.500 C 1134.371 816.200, 1133.262 809.900, 1132.488 805.500 C 1131.144 797.857, 1127.040 778.023, 1123.487 762 C 1122.573 757.875, 1120.969 750.450, 1119.923 745.500 C 1117.296 733.066, 1114.829 723.710, 1113.828 722.389 C 1113.365 721.778, 1110.548 721.027, 1107.568 720.719 C 1096.658 719.593, 1087.213 712.954, 1084.858 704.757 C 1084.035 701.892, 1083.713 693.959, 1083.874 680.500 C 1084.116 660.298, 1084.717 655.840, 1089.458 639.032 C 1090.306 636.025, 1091 632.569, 1091 631.352 C 1091 629.264, 1075.511 583.253, 1071.188 572.500 C 1070.083 569.750, 1068.029 564.497, 1066.624 560.826 C 1065.219 557.155, 1062.704 551.261, 1061.035 547.729 C 1059.366 544.197, 1058 541.026, 1058 540.684 C 1058 539.406, 1045.587 512.036, 1039.322 499.500 C 1033.134 487.120, 1029.498 480.872, 1017.697 462.340 C 1014.838 457.853, 1010.271 450.653, 1007.547 446.340 C 1000.864 435.761, 990.121 421.258, 982.043 411.910 C 975.222 404.017, 969.131 393.878, 968.058 388.628 C 967.478 385.794, 966.858 385.485, 953.476 381.359 C 945.789 378.989, 936.800 376.094, 933.500 374.925 C 930.200 373.757, 923.008 371.209, 917.517 369.263 C 900.970 363.398, 882.191 358.361, 859 353.566 C 836.290 348.871, 829.991 347.293, 814.325 342.379 C 804.879 339.416, 792.984 335.402, 787.892 333.459 C 782.801 331.516, 778.111 330.127, 777.471 330.373 C 776.216 330.855, 770.769 341.693, 765.376 354.443 C 763.528 358.812, 759.507 366.590, 756.441 371.728 C 753.375 376.866, 751.011 381.820, 751.188 382.738 C 751.365 383.655, 754.316 386.002, 757.746 387.953 C 766.807 393.107, 770 396.212, 770 399.871 C 770 405.676, 764.372 405.998, 723 402.558 C 697.940 400.474, 661.842 398.968, 637.500 398.990 C 607.579 399.017, 559.032 403.679, 533.500 408.976 C 520.438 411.687, 511.838 413, 507.150 413 C 498.674 413, 493.565 403.934, 497.440 395.768 C 500.936 388.400, 516.153 379.603, 530.845 376.457 C 535.434 375.474, 539.409 374.098, 539.677 373.400 C 539.945 372.701, 538.327 368.985, 536.082 365.140 C 533.837 361.296, 532 357.886, 532 357.562 C 532 357.238, 529.045 350.376, 525.433 342.314 C 519.100 328.175, 509 299.817, 509 296.172 C 509 294.167, 507.126 291.952, 505.550 292.095 C 504.973 292.148, 497.750 295.015, 489.500 298.467 M 1203.500 361.382 C 1200.750 362.131, 1197.251 363.038, 1195.725 363.398 C 1191.057 364.496, 1185.300 370.571, 1182.999 376.828 C 1181.852 379.947, 1180.293 383.850, 1179.535 385.500 C 1173.529 398.570, 1170.017 412.458, 1170.007 423.176 C 1170 430.775, 1167.905 443.396, 1164.122 458.627 C 1162.575 464.856, 1162.057 471.358, 1161.640 489.769 C 1161.142 511.726, 1161.242 513.533, 1163.399 521.814 C 1164.657 526.641, 1166.474 531.794, 1167.438 533.265 C 1169.825 536.908, 1180.263 542, 1185.344 542 C 1190.418 542, 1197.598 538.579, 1199.752 535.136 C 1200.659 533.686, 1203.253 530.470, 1205.516 527.989 C 1207.780 525.509, 1211.366 520.784, 1213.484 517.489 C 1220.188 507.067, 1230.682 484.043, 1233.344 473.919 C 1236.926 460.295, 1240 443.722, 1240 438.037 C 1240 435.364, 1240.673 429.658, 1241.496 425.358 C 1243.924 412.668, 1244.395 402.602, 1243.071 391.667 C 1240.515 370.547, 1239.151 367.141, 1231.727 363.322 C 1227.414 361.104, 1224.926 360.580, 1217.500 360.327 C 1212.049 360.141, 1206.528 360.557, 1203.500 361.382 M 1202.770 375.632 C 1201.176 378.435, 1200.719 384.439, 1200.877 400.500 C 1201.011 414.133, 1200.680 419.834, 1199.510 424 C 1197.923 429.649, 1195.626 446.632, 1193.998 464.757 C 1192.922 476.735, 1191.904 480.820, 1187.460 491 C 1183.536 499.989, 1178 517.750, 1178 521.350 C 1178 522.877, 1178.789 524.352, 1179.934 524.965 C 1182.618 526.401, 1189.555 526.263, 1190.706 524.750 C 1191.229 524.063, 1192.636 517.650, 1193.832 510.500 C 1199.665 475.631, 1201.823 464.959, 1209.097 435 C 1210.232 430.325, 1211.994 422.675, 1213.012 418 C 1214.030 413.325, 1216.919 403.601, 1219.432 396.390 C 1224.703 381.261, 1225.038 378.345, 1221.650 377.057 C 1218.192 375.742, 1203.345 374.622, 1202.770 375.632 M 617.424 434.954 C 608.142 435.797, 604.681 436.410, 585.500 440.606 C 565.330 445.018, 546.771 450.562, 539.014 454.493 C 530.708 458.702, 523.072 469.316, 523.022 476.724 C 523.004 479.305, 522.384 480.267, 519.912 481.545 C 516.136 483.498, 513.740 488.634, 511.534 499.500 C 510.641 503.900, 509.492 509.081, 508.981 511.012 C 506.524 520.293, 500.004 562.065, 499.072 574.500 C 498.494 582.200, 497.336 607.625, 496.497 631 C 493.949 702.050, 491.006 770.739, 490.424 772.750 C 489.498 775.953, 486.453 773.247, 480.294 763.750 C 466.496 742.470, 447.059 719.348, 434.287 709.020 C 419.055 696.703, 409.529 693.417, 386 692.363 C 369.549 691.627, 364.208 692.794, 353.514 699.459 C 340.426 707.616, 333.077 717.693, 327.024 735.777 C 322.748 748.554, 321.414 760.814, 322.932 773.371 C 324.285 784.555, 328.476 802.991, 330.623 807.200 C 331.380 808.686, 332.004 810.711, 332.009 811.700 C 332.025 814.731, 341.705 835.915, 347.676 845.984 C 365.918 876.748, 392.472 900.985, 417.044 909.299 C 423.826 911.594, 436.187 913.092, 448.075 913.060 C 456.670 913.037, 460.132 912.549, 466.575 910.453 C 481.837 905.488, 488.602 900.346, 497.377 887.039 C 500.977 881.579, 504.841 876.620, 505.963 876.020 C 511.324 873.151, 518.285 851.728, 520.917 830 C 521.483 825.325, 522.415 805.300, 522.989 785.500 C 523.562 765.700, 524.466 740.950, 524.998 730.500 C 525.530 720.050, 526.456 697.550, 527.055 680.500 C 527.654 663.450, 528.449 644.337, 528.822 638.026 L 529.500 626.551 538.500 624.239 C 543.450 622.968, 549.975 621.549, 553 621.086 C 564.047 619.396, 583.681 615.916, 590.687 614.407 C 602.006 611.969, 613.193 610.164, 631 607.901 C 645.586 606.047, 650.631 605.875, 674.500 606.418 C 689.350 606.756, 705.325 607.448, 710 607.957 C 714.675 608.467, 724.800 609.380, 732.500 609.988 C 740.200 610.595, 752.125 611.807, 759 612.681 C 765.875 613.554, 778.275 614.353, 786.556 614.455 C 794.836 614.558, 802.212 615.013, 802.945 615.466 C 804.024 616.133, 804.148 620.147, 803.593 636.395 C 801.711 691.463, 797.977 778.837, 797.424 780.750 C 796.498 783.953, 793.453 781.247, 787.294 771.750 C 773.496 750.470, 754.059 727.348, 741.287 717.020 C 726.055 704.703, 716.529 701.417, 693 700.363 C 676.549 699.627, 671.208 700.794, 660.514 707.459 C 647.426 715.616, 640.077 725.693, 634.024 743.777 C 629.748 756.554, 628.414 768.814, 629.932 781.371 C 631.285 792.555, 635.476 810.991, 637.623 815.200 C 638.380 816.686, 639.004 818.711, 639.009 819.700 C 639.025 822.731, 648.705 843.915, 654.676 853.984 C 672.918 884.748, 699.472 908.985, 724.044 917.299 C 730.826 919.594, 743.187 921.092, 755.075 921.060 C 763.670 921.037, 767.132 920.549, 773.575 918.453 C 788.837 913.488, 795.602 908.346, 804.377 895.039 C 807.977 889.579, 811.841 884.620, 812.963 884.020 C 817.104 881.804, 821.846 869.790, 825.600 852 C 828.156 839.890, 828.812 829.547, 830.995 767 C 831.561 750.775, 832.441 727.375, 832.949 715 C 833.458 702.625, 834.373 678.325, 834.983 661 C 835.593 643.675, 836.563 619.600, 837.140 607.500 C 837.716 595.400, 838.429 572.457, 838.724 556.516 C 839.169 532.483, 839.530 527.121, 840.834 525.131 C 842.027 523.309, 842.417 519.933, 842.453 511.116 C 842.522 494.116, 838.754 479.632, 832.080 471.240 C 820.929 457.220, 814.367 453.403, 799.118 452.064 C 791.651 451.409, 787.599 450.427, 781 447.673 C 764.213 440.668, 747.331 437.537, 718.109 436.009 C 691.997 434.644, 628.193 433.975, 617.424 434.954 M 625.336 467.054 C 606.837 468.691, 568.865 477.375, 556.308 482.839 C 548.378 486.290, 539.177 488.873, 533.500 489.241 C 528.893 489.539, 529.196 487.260, 530.872 509 C 532.279 527.247, 532.267 553.992, 530.839 580.278 C 529.913 597.326, 529.920 602.320, 530.870 603.270 C 531.823 604.223, 534.502 603.254, 543.292 598.779 C 570.366 584.998, 577.581 582.791, 615 576.848 C 640.756 572.757, 703.328 573.422, 734 578.113 C 745.444 579.863, 780.127 589.777, 791.786 594.630 C 798.783 597.544, 803.426 598.974, 804.006 598.394 C 804.520 597.880, 805.408 591.169, 805.980 583.480 C 807.045 569.172, 812.498 534.413, 816.135 518.751 C 817.831 511.444, 817.988 509.170, 817.083 504.952 C 816.487 502.174, 816 497.478, 816 494.516 C 816 485.314, 815.190 484.284, 807.307 483.462 C 796.866 482.373, 786.183 477.988, 779.788 472.168 C 777.185 469.798, 776.706 469.725, 767.788 470.348 C 762.680 470.704, 751.525 470.548, 743 469.999 C 696.921 467.037, 641.270 465.643, 625.336 467.054 M 1145.610 573.250 C 1144.249 575.587, 1141.952 582.225, 1140.505 588 C 1137.143 601.420, 1133.766 610.824, 1129.373 619 C 1127.452 622.575, 1125.197 627.525, 1124.361 630 C 1122.137 636.588, 1117.887 647.345, 1117.051 648.500 C 1116.653 649.050, 1115.278 652.200, 1113.996 655.500 C 1112.713 658.800, 1109.964 664.928, 1107.887 669.119 C 1102.024 680.944, 1096.751 698.292, 1098.559 699.805 C 1099.076 700.238, 1102.840 701.416, 1106.921 702.422 C 1115.422 704.518, 1116.209 704.128, 1117.469 697.198 C 1117.839 695.164, 1119.658 689.900, 1121.511 685.500 C 1123.364 681.100, 1126.551 673.225, 1128.594 668 C 1133.877 654.490, 1156.648 609.705, 1165.456 595.500 C 1169.549 588.900, 1172.920 582.718, 1172.949 581.763 C 1173.002 579.966, 1167.388 575.878, 1163 574.517 C 1161.625 574.090, 1158.377 572.674, 1155.783 571.370 C 1153.189 570.067, 1150.395 569, 1149.575 569 C 1148.755 569, 1146.971 570.913, 1145.610 573.250 M 368.608 719.868 C 364.552 720.754, 360.359 726.402, 357.306 735.090 C 353.468 746.011, 352.905 765.297, 355.994 780 C 365.699 826.191, 388.727 859.236, 425.582 879.856 C 430.577 882.651, 437.309 885.627, 440.542 886.469 C 447.422 888.261, 462.170 888.498, 465.316 886.868 C 466.517 886.245, 470.425 882.966, 474 879.580 C 477.575 876.195, 482.925 871.417, 485.888 868.963 L 491.276 864.500 490.634 844.935 L 489.992 825.370 476.434 804.935 C 465.622 788.638, 461.103 782.779, 454.116 776 C 449.298 771.325, 442.035 763.450, 437.975 758.500 C 422.066 739.101, 412.116 730.241, 397.667 722.609 C 391.107 719.144, 390.447 719.005, 381.167 719.118 C 375.850 719.183, 370.199 719.521, 368.608 719.868 M 1064.821 722.337 C 1062.247 723.062, 1058.584 724.843, 1056.681 726.294 C 1046.916 733.742, 1026.927 757.250, 1019.584 769.920 C 1017.538 773.451, 1013.495 782.049, 1010.601 789.026 C 1007.023 797.651, 1003.763 803.704, 1000.419 807.932 C 997.714 811.353, 994.228 816.030, 992.673 818.326 C 989.372 823.200, 979.366 842.934, 975.967 851.271 C 974.673 854.446, 971.424 859.621, 968.748 862.771 C 962.920 869.633, 956.282 882.586, 955.052 889.500 C 954.562 892.250, 952.452 898.550, 950.363 903.500 C 947.151 911.108, 946.504 913.865, 946.180 921.321 C 945.820 929.592, 945.993 930.544, 948.958 936.566 C 953.460 945.710, 957.425 948.500, 965.922 948.500 C 976.351 948.500, 981.876 945.178, 997.526 929.498 C 1007.970 919.033, 1013.518 912.292, 1025.524 895.474 C 1033.758 883.938, 1043.917 870.675, 1048.098 866 C 1057.655 855.316, 1073.726 831.464, 1079.767 819 C 1082.299 813.775, 1085.397 807.845, 1086.652 805.823 C 1090.612 799.440, 1097.040 786.811, 1100.814 778 C 1104.347 769.751, 1104.455 769.131, 1104.477 757 C 1104.504 742.496, 1103.844 740.674, 1095.627 732.562 C 1085.855 722.914, 1075.257 719.397, 1064.821 722.337 M 676.608 728.868 C 675.011 729.217, 672.416 731.108, 670.813 733.090 C 662.675 743.153, 659.706 766.618, 663.992 787 C 673.708 833.205, 696.727 866.236, 733.582 886.856 C 738.577 889.651, 745.309 892.627, 748.542 893.469 C 755.437 895.265, 768.190 895.488, 771.316 893.868 C 772.517 893.245, 776.425 889.966, 780 886.580 C 783.575 883.195, 788.924 878.417, 791.886 875.963 L 797.273 871.500 796.616 852.910 L 795.959 834.320 782.418 813.910 C 771.621 797.637, 767.101 791.777, 760.116 785 C 755.298 780.325, 748.035 772.450, 743.975 767.500 C 728.066 748.101, 718.116 739.241, 703.667 731.609 C 697.252 728.221, 696.303 728.007, 688.167 728.118 C 683.400 728.183, 678.199 728.521, 676.608 728.868 M 1069.842 739.285 C 1065.263 744.762, 1063.594 748.104, 1056 767 C 1047.552 788.020, 1042.557 796.745, 1032.374 808.269 C 1030.056 810.893, 1027.274 814.943, 1026.191 817.269 C 1025.108 819.596, 1022.630 824.875, 1020.684 829 C 1017.247 836.285, 1002.729 856.405, 995.068 864.500 C 992.986 866.700, 989.356 872.550, 987.002 877.500 C 983.479 884.906, 981.282 887.933, 974.590 894.594 C 964.005 905.129, 959.491 913.545, 959.519 922.695 C 959.534 927.777, 959.950 929.394, 961.686 931.130 C 962.885 932.330, 964.502 933.021, 965.347 932.697 C 967.128 932.014, 974.693 920.972, 981.539 909.065 C 984.206 904.426, 989.723 896.364, 993.800 891.149 C 1004.565 877.377, 1008.268 871.660, 1013.395 860.893 C 1017.079 853.156, 1018.747 850.771, 1021.965 848.642 C 1024.198 847.164, 1026.916 844.125, 1028.126 841.753 C 1031.259 835.612, 1052.865 803.160, 1056.579 799.016 C 1058.313 797.082, 1061.882 792.125, 1064.510 788 C 1070.656 778.354, 1077.001 770.078, 1084.232 762.275 C 1089.070 757.054, 1090 755.461, 1090 752.393 C 1090 746.645, 1085.776 741.183, 1077.542 736.285 C 1074.392 734.412, 1073.685 734.687, 1069.842 739.285 M 815.500 950.733 C 813.850 950.971, 809.350 952.510, 805.500 954.153 C 794.944 958.658, 785.022 962.650, 780 964.413 C 773.704 966.623, 755.025 982.674, 746.692 993.035 C 731.908 1011.417, 722.853 1027.658, 717.719 1045 C 712.212 1063.602, 711.649 1068.007, 711.780 1091.500 C 711.889 1111.011, 712.138 1114.179, 713.986 1119.500 C 715.132 1122.800, 716.767 1128.200, 717.619 1131.500 C 718.471 1134.800, 720.172 1138.850, 721.399 1140.500 C 722.626 1142.150, 725.382 1146.425, 727.524 1150 C 729.845 1153.873, 736.083 1161.148, 742.960 1168 C 754.466 1179.466, 754.541 1179.519, 768.227 1185.783 C 782.881 1192.491, 808.312 1201.795, 819 1204.359 C 827.529 1206.404, 860.170 1205.225, 869.500 1202.534 C 872.800 1201.582, 877.525 1200.425, 880 1199.963 C 895.403 1197.085, 905.252 1191.600, 918.380 1178.591 C 925.980 1171.059, 927.332 1169.081, 934.213 1155.428 C 948.566 1126.949, 951.837 1110.283, 950.097 1074.500 C 949.339 1058.916, 948.687 1053.286, 947.145 1049 C 943.958 1040.141, 936.502 1022.031, 933.147 1015 C 929.216 1006.761, 915.157 989.087, 903.520 977.757 C 895.722 970.163, 892.763 968.086, 881.020 961.964 C 873.584 958.088, 865.250 954.264, 862.500 953.468 C 852.969 950.708, 826.389 949.161, 815.500 950.733 M 229.297 1086.476 C 218.850 1089.466, 218.668 1089.591, 219.408 1093.292 C 220.047 1096.484, 229.433 1116.164, 236.438 1129 C 238.690 1133.125, 242.955 1141.900, 245.916 1148.500 C 255.142 1169.061, 264.942 1189.172, 269.721 1197.351 C 272.244 1201.668, 275.508 1208.165, 276.976 1211.787 C 278.443 1215.409, 280.362 1218.826, 281.241 1219.380 C 282.434 1220.133, 285.038 1219.408, 291.517 1216.521 C 296.290 1214.394, 300.426 1212.054, 300.708 1211.319 C 301.265 1209.868, 300.599 1208.824, 292.744 1198.827 C 285.409 1189.494, 281.739 1183.125, 276.705 1171 C 274.308 1165.225, 269.627 1156.378, 266.303 1151.339 C 259.234 1140.621, 254.784 1130.458, 251.966 1118.594 C 250.853 1113.908, 248.737 1107.750, 247.263 1104.909 C 245.312 1101.149, 244.436 1097.670, 244.042 1092.122 L 243.500 1084.500 240.500 1084.314 C 238.850 1084.212, 233.809 1085.185, 229.297 1086.476 M 665.968 1147.365 C 665.683 1147.650, 662.676 1148.331, 659.285 1148.877 C 647.149 1150.831, 625.521 1162.787, 618.120 1171.631 C 616.679 1173.354, 612.800 1176.139, 609.500 1177.820 C 606.200 1179.502, 600.350 1183.636, 596.500 1187.007 C 592.650 1190.379, 586.255 1194.679, 582.289 1196.564 C 578.323 1198.448, 572.795 1202.017, 570.006 1204.495 C 567.216 1206.973, 564.379 1209, 563.701 1209 C 559.012 1209, 549.428 1219.267, 547.872 1225.958 C 546.454 1232.054, 546.887 1238.319, 549 1242.261 C 550.100 1244.314, 551 1246.839, 551 1247.874 C 551 1254.375, 560.273 1265.434, 566.651 1266.538 C 568.768 1266.905, 572.726 1268.284, 575.446 1269.602 C 579.510 1271.572, 581.920 1271.994, 588.946 1271.968 C 610.637 1271.888, 622.527 1268.368, 665 1249.457 C 691.753 1237.545, 706.427 1225.082, 708.515 1212.500 C 708.880 1210.300, 709.867 1206.606, 710.709 1204.292 C 713.459 1196.731, 710.048 1183.713, 702.808 1174.141 C 693.468 1161.791, 689.797 1158.161, 679 1150.595 C 675.748 1148.317, 667.148 1146.185, 665.968 1147.365 M 662.066 1174.355 C 653.796 1183.989, 646.127 1190.865, 638.591 1195.403 C 635.681 1197.155, 630.830 1200.699, 627.811 1203.278 C 621.810 1208.405, 615.506 1211.497, 604.013 1214.951 C 599.895 1216.189, 595.250 1218.110, 593.690 1219.221 C 590.234 1221.682, 582.833 1224, 578.431 1224 C 574.619 1224, 567 1228.625, 567 1230.939 C 567 1231.810, 568.688 1235.892, 570.751 1240.011 C 577.753 1253.992, 579.299 1255.118, 585.317 1250.621 C 591.793 1245.781, 605.009 1239.020, 617.574 1234.119 C 639.460 1225.583, 644.980 1223.183, 660.500 1215.452 C 668.750 1211.342, 679.097 1206.728, 683.494 1205.199 C 692.561 1202.046, 693.484 1200.641, 689.733 1195.703 C 688.395 1193.941, 686.185 1190.250, 684.820 1187.500 C 678.940 1175.646, 672.746 1166, 671.013 1166 C 670.028 1166, 666.048 1169.717, 662.066 1174.355 M 486.477 1221.988 C 483.714 1222.394, 478.764 1223.516, 475.477 1224.480 C 470.569 1225.920, 467.890 1226.087, 460.500 1225.411 C 455.550 1224.958, 447.450 1224.654, 442.500 1224.735 C 437.550 1224.817, 427.200 1224.846, 419.500 1224.801 C 388.395 1224.618, 376.171 1224.643, 369.500 1224.904 C 365.650 1225.055, 355.407 1224.865, 346.738 1224.482 C 327.778 1223.645, 327.667 1223.691, 322.440 1234.558 C 319.533 1240.601, 318.695 1243.693, 318.266 1249.949 C 317.747 1257.521, 317.856 1258.029, 321.587 1265.478 C 324.355 1271.004, 326.299 1273.608, 328.472 1274.701 C 330.137 1275.539, 332.850 1277.451, 334.500 1278.950 C 338.723 1282.788, 344.590 1285.964, 360.052 1292.781 C 377.837 1300.623, 381.031 1301.577, 397.500 1303.962 C 416.607 1306.729, 444.163 1306.741, 459 1303.990 C 485.857 1299.009, 493.861 1296.272, 513 1285.524 C 526.184 1278.121, 534.127 1270.562, 535.822 1263.807 C 538.103 1254.717, 536.666 1234.229, 533.395 1229.210 C 531.771 1226.720, 528.428 1225.051, 520.135 1222.591 C 514.441 1220.902, 496.099 1220.573, 486.477 1221.988 M 338.943 1239.250 C 338.911 1239.388, 338.680 1244, 338.428 1249.500 C 338.176 1255, 337.864 1260.625, 337.735 1262 C 337.510 1264.391, 337.761 1264.511, 343.500 1264.746 C 353.022 1265.137, 383.588 1268.940, 394.098 1271.041 C 399.376 1272.097, 410.626 1273.252, 419.098 1273.607 C 434.888 1274.269, 464.959 1272.720, 470.511 1270.958 C 472.167 1270.433, 481.392 1268.676, 491.011 1267.055 C 506.666 1264.417, 518.483 1262.255, 521.602 1261.458 C 524.272 1260.776, 524.236 1240.411, 521.563 1239.386 C 520.926 1239.141, 517.502 1240.255, 513.953 1241.861 C 510.404 1243.466, 503.450 1246.230, 498.500 1248.003 C 490.447 1250.886, 488.184 1251.252, 477 1251.483 C 470.125 1251.624, 462.250 1252.279, 459.500 1252.938 C 453.217 1254.444, 437.042 1254.511, 430.675 1253.059 C 427.917 1252.429, 418.064 1252.040, 407.675 1252.149 C 387.692 1252.359, 378.229 1250.955, 368.242 1246.298 C 365.349 1244.950, 360.047 1243.431, 356.458 1242.923 C 352.869 1242.414, 348.318 1241.324, 346.344 1240.499 C 343.222 1239.195, 339.114 1238.501, 338.943 1239.250" stroke="none" fill="#fffcfc" fill-rule="evenodd"/><path d="" stroke="none" fill="#fcfcfc" fill-rule="evenodd"/></svg>