<?xml version="1.0" encoding="utf-8"?>
<!-- Generator: Adobe Illustrator 16.0.0, SVG Export Plug-In . SVG Version: 6.00 Build 0)  -->
<!DOCTYPE svg PUBLIC "-//W3C//DTD SVG 1.1//EN" "http://www.w3.org/Graphics/SVG/1.1/DTD/svg11.dtd">
<svg version="1.1" id="Layer_2" xmlns="http://www.w3.org/2000/svg" xmlns:xlink="http://www.w3.org/1999/xlink" x="0px" y="0px"
	 width="1000px" height="1000px" viewBox="0 0 1000 1000" enable-background="new 0 0 1000 1000" xml:space="preserve">
<g>
	<g>
		<path fill="#FFFFFF" d="M505.483,586.501c0.564,1.359,1.52,4.249,1.571,4.813c0.026,0.286-0.291,2.542,0.033,0.946
			c-0.288,1.42,0.221-0.14,0.56-0.578c-0.506,0.653,1.151-0.123-0.779,0.33c1.052-0.247-1.582-0.244-1.544-0.235
			c-5.735-1.262-9.73-6.773-10.729-13.49c-0.602-4.05-5.649-6.222-9.226-5.238c-4.294,1.182-5.839,5.186-5.238,9.227
			c1.938,13.038,12.42,23.036,25.377,24.606c5.406,0.655,11.36-1.949,14.277-6.574c3.42-5.423,2.499-12.159,0.162-17.795
			c-1.565-3.772-4.912-6.425-9.227-5.238C507.149,578.258,503.915,582.717,505.483,586.501L505.483,586.501z"/>
		<path fill="#FFFFFF" d="M514.71,573.049c-24.007-4.298-48.216-1.751-72.417-1.676c-9.671,0.03-9.674,15.03,0,15
			c22.729-0.07,45.89-2.895,68.429,1.141C520.178,589.206,524.221,574.752,514.71,573.049L514.71,573.049z"/>
		<path fill="#FFFFFF" d="M139.916,255.772c-0.92-0.658,1.047,1.279,1.043,1.272c0.956,1.38,1.699,2.907,2.408,4.424
			c1.62,3.467,2.766,8.065,3.764,12.038c2.43,9.674,3.898,19.583,5.418,29.431c3.1,20.079,8.522,39.21,16.454,57.963
			c8.298,19.62,19.493,37.645,33.757,53.494c15.208,16.897,33.816,30.577,53.165,42.346c2.622,1.594,5.274,3.137,7.936,4.665
			c8.403,4.824,15.955-8.139,7.57-12.952c-19.868-11.406-38.677-24.473-54.646-41c-14.463-14.97-25.476-32.672-33.793-51.694
			c-7.961-18.205-12.96-37.242-15.979-56.809c-2.656-17.222-4.153-38.724-15.601-52.763c-1.089-1.336-2.537-2.375-3.925-3.367
			C139.6,237.18,132.122,250.199,139.916,255.772L139.916,255.772z"/>
		<path fill="#FFFFFF" d="M418.935,244.88c-20.499-8.635-42.231-11.86-64.384-11.619c-11.396,0.125-22.722,1.422-34.104,1.767
			c-12.721,0.385-25.453,0.302-38.176,0.103c-49.973-0.782-99.907-2.978-149.013,8.341c-9.424,2.172-5.427,16.634,3.987,14.464
			c47.096-10.855,95.2-8.692,143.139-7.836c12.066,0.215,24.134,0.276,36.2,0.026c11.548-0.239,23.027-1.433,34.57-1.792
			c22.068-0.687,43.372,2.407,63.794,11.01c3.775,1.59,8.248-1.682,9.226-5.238C425.365,249.776,422.7,246.466,418.935,244.88
			L418.935,244.88z"/>
		<path fill="#FFFFFF" d="M575.018,247.556c8.451,8.451,16.901,16.901,25.352,25.353c6.846,6.846,17.452-3.761,10.607-10.606
			c-8.451-8.451-16.901-16.901-25.352-25.353C578.779,230.104,568.173,240.71,575.018,247.556L575.018,247.556z"/>
		<path fill="#FFFFFF" d="M859.194,222.077c-18.675,0.115-36.979,3.565-55.047,8.044c-19.248,4.771-38.384,9.667-57.793,13.769
			c-40.378,8.534-80.988,15.923-121.549,23.525c-9.5,1.78-5.465,16.235,3.988,14.464c39.296-7.364,78.627-14.563,117.767-22.73
			c18.934-3.951,37.668-8.432,56.396-13.252c18.5-4.761,37.055-8.702,56.237-8.82C868.864,237.018,868.87,222.018,859.194,222.077
			L859.194,222.077z"/>
		<path fill="#FFFFFF" d="M810.867,427.603c65.493-42.777,63.065-127.386,60.053-196.618c-0.419-9.634-15.421-9.675-15,0
			c2.736,62.881,7.475,144.413-52.623,183.666C795.234,419.917,802.742,432.91,810.867,427.603L810.867,427.603z"/>
		<path fill="#FFFFFF" d="M714.71,617.091c24.563-3.46,51.385,5.934,73.912-8.184c6.799-4.261,10.984-11.068,9.63-19.191
			c-1.125-6.753-6.233-12.479-10.933-17.115c-5.634-5.557-12.037-10.317-18.211-15.246c-2.797-2.233-5.563-4.504-8.224-6.9
			c-1.158-1.044-2.271-2.136-3.353-3.261c-0.487-0.508-0.949-1.039-1.409-1.572c-0.832-0.965,0.364,0.623-0.703-1.005
			c-3.827-5.836-4.998-12.275-2.99-17.867c1.601-4.458,7.82-9.132,13.015-12.351c13.477-8.351,29.558-13.14,41.153-24.324
			c7.837-7.559,18.317-22.853,10.54-33.746c-6.908-9.674-20.916-10.276-31.713-10.212c-14.085,0.083-28.216,2.28-42.051,4.75
			c-8.585,1.533-17.101,3.385-25.61,5.281c-9.439,2.104-5.436,16.564,3.988,14.464c22.419-4.996,43.962-9.818,66.701-9.482
			c6.137,0.09,8.564,0.05,14.321,2.182c-2.024-0.75,0.725,0.415,1.26,0.739c1.604,0.972-0.822-0.978,0.806,0.739
			c1.04,1.098-1.011-1.481-0.204-0.226c0.31,0.48,0.749,1.764-0.066-0.347c0.837,2.167,0.259-1.091,0.209,1.378
			c-0.034,1.684,0.347-1.804,0.024-0.055c-0.098,0.532-0.253,1.052-0.405,1.57c-0.081,0.276-0.783,2.079-0.096,0.461
			c-0.263,0.618-0.573,1.215-0.88,1.813c-1.589,3.09-3.667,5.811-5.869,8.41c-4.448,5.25-10.57,8.353-16.968,11.701
			c-14.097,7.377-30.445,13.545-39.7,27.258c-9.154,13.563-3.183,32.021,7.636,42.657c5.412,5.321,11.634,9.826,17.541,14.569
			c2.965,2.381,5.883,4.817,8.695,7.377c2.316,2.109,5.557,5.505,6.664,7.051c0.808,1.127,1.484,2.335,2.074,3.587
			c-0.382-0.812,0.151,1.564,0.116,0.856c0.093,1.858,0.405-1.572,0.022,0.252c-0.377,1.799,0.767-1.314-0.102,0.393
			c-0.49,0.963-0.981,1.399-1.753,1.966c-9.086,6.664-21.457,6.788-32.211,6.686c-13.014-0.125-25.892-1.347-38.847,0.478
			c-4.056,0.571-6.216,5.673-5.238,9.227C706.671,616.169,710.665,617.66,714.71,617.091L714.71,617.091z"/>
		<path fill="#FFFFFF" d="M593.82,649.485c18.688,2.814,37.025,2.494,53.959-6.737c15.858-8.646,28.594-22.865,42.071-34.628
			c7.301-6.372-3.354-16.938-10.607-10.607c-12.099,10.561-23.365,22.8-37.16,31.2c-13.457,8.195-29.057,8.601-44.274,6.308
			c-4.039-0.608-8.047,0.95-9.227,5.238C587.597,643.841,589.771,648.875,593.82,649.485L593.82,649.485z"/>
		<path fill="#FFFFFF" d="M693.188,800.822c-4.006-27.152-13.898-53.148-25.736-77.783c-12.019-25.011-26.82-48.663-43.798-70.597
			c-2.508-3.238-7.991-2.615-10.607,0c-3.162,3.163-2.5,7.377,0,10.607c15.832,20.451,29.305,42.834,40.706,66.023
			c11.73,23.858,21.079,49.352,24.971,75.737c0.598,4.051,5.653,6.221,9.227,5.238C692.246,808.866,693.783,804.863,693.188,800.822
			L693.188,800.822z"/>
		<path fill="#FFFFFF" d="M434.666,646.288c-28.222,6.459-57.008,1.213-85.331-1.676c-5.849-0.597-9.097,6.753-6.476,11.285
			c13.196,22.824,36.545,34.452,56.103,50.814c1.103-4.179,2.206-8.357,3.31-12.536c-20.677,5.734-36.069,30.064-36.492,50.895
			c-0.065,3.233,2.324,6.48,5.506,7.232c12.662,2.99,25.674,3.082,38.613,3.084c-2.411-1.835-4.821-3.671-7.232-5.506
			c1.226,8.72-2.738,18.197-5.313,26.33c-3.184,10.053-6.044,20.21-6.223,30.831c-0.162,9.678,14.838,9.662,15,0
			c0.353-21.048,14.002-39.791,11-61.149c-0.456-3.246-4.224-5.505-7.232-5.506c-11.586-0.002-23.285,0.13-34.625-2.549
			c1.835,2.411,3.671,4.821,5.506,7.232c0.287-14.156,11.315-32.502,25.479-36.43c5.073-1.407,7.757-8.814,3.31-12.536
			c-18.324-15.33-41.424-26.446-53.757-47.777c-2.159,3.762-4.317,7.523-6.476,11.285c29.864,3.046,59.567,7.949,89.318,1.141
			C448.081,658.595,444.082,644.134,434.666,646.288L434.666,646.288z"/>
		<path fill="#FFFFFF" d="M301.258,614.67c4.472,14.142,19.634,20.11,32.694,23.811c13.631,3.863,27.774,5.081,41.558,8.188
			c9.42,2.123,13.422-12.338,3.987-14.465c-12.229-2.756-24.728-4.073-36.935-6.987c-5.97-1.426-11.968-3.15-17.476-5.895
			c-4.301-2.144-8.296-5.263-9.365-8.641C312.817,601.494,298.333,605.421,301.258,614.67L301.258,614.67z"/>
		<path fill="#FFFFFF" d="M268.23,473.049c-26.186-7.563-53.753-10.002-80.867-11.536c-4.048-0.229-7.549,3.584-7.5,7.5
			c0.218,17.376,10.249,29.688,23.682,39.515c6.037,4.417,12.502,8.217,18.67,12.443c5.148,3.526,10.656,8.028,13.909,12.886
			c3.67,5.481,4.871,11.5,3.818,18.541c-1.285,8.598-5.66,16.621-8.983,24.551c-6.294,15.018-15.033,42.453,7.435,48.577
			c8.338,2.273,17.815,0.351,26.021-1.531c7.53-1.727,14.895-4.204,22.126-6.904c8.977-3.353,5.093-17.855-3.987-14.465
			c-8.396,3.136-16.95,5.882-25.736,7.691c-4.186,0.862-8.406,1.288-12.68,1.044c-0.826-0.047-3.126-0.706-3.13-0.708
			c-1.701-0.819,0.356,0.596-0.938-0.671c0.664,0.65-0.88-1.472-1.086-1.873c-0.837-1.629-0.335-5.974,0.209-8.714
			c1.023-5.145,2.9-10.124,4.816-14.989c3.214-8.158,7.691-16.104,9.743-24.666c4.072-16.994-1.114-32.744-14.14-44.214
			c-11.153-9.821-25.31-15.927-35.665-26.012c-5.783-5.631-8.979-12.233-9.083-20.501c-2.5,2.5-5,5-7.5,7.5
			c25.836,1.461,51.925,3.792,76.879,11C273.557,490.204,277.505,475.728,268.23,473.049L268.23,473.049z"/>
		<path fill="#FFFFFF" d="M415.202,377.795c-10.489-13.383-26.626-17.969-42.482-11.739c-15.639,6.145-28.188,18.715-38.223,31.846
			c-11.671,15.272-17.49,32.668-22.011,51.228c-5.756,23.625-8.488,47.906-11.496,71.996c-0.508,4.067,3.796,7.5,7.5,7.5
			c4.472,0,6.994-3.444,7.5-7.5c2.627-21.044,5.224-42.104,9.766-62.84c3.721-16.986,8.334-33.852,18.337-48.254
			c7.676-11.052,17.628-21.36,29.463-27.919c4.983-2.762,10.366-4.305,16.063-3.917c6.226,0.423,11.302,5.52,14.976,10.207
			c2.526,3.224,7.978,2.628,10.606,0C418.352,385.252,417.721,381.01,415.202,377.795L415.202,377.795z"/>
		<path fill="#FFFFFF" d="M710.089,500.823c-5.218-21.627-11.531-43.024-20.165-63.554c-4.319-10.271-9.179-20.276-14.963-29.808
			c-5.153-8.492-11.037-17.33-18.95-23.477c-27.069-21.027-75.725-23.542-100.712,2.261c-6.729,6.948,3.868,17.566,10.607,10.606
			c10.638-10.985,26.427-14.169,41.199-13.894c14.563,0.271,30.622,4.557,41.675,14.446c6.505,5.821,11.235,14.125,15.583,21.589
			c5.251,9.014,9.657,18.529,13.535,28.205c7.48,18.664,13.016,38.086,17.726,57.613
			C697.893,514.211,712.356,510.223,710.089,500.823L710.089,500.823z"/>
		<path fill="#FFFFFF" d="M400.863,392.768c-31.016,5.407-37.344,42.862-34.425,68.831c2.564,22.817,14.411,61.872,43.742,60.667
			c30.156-1.237,36.805-40.761,36.705-64.12c-0.103-24.009-8.545-64.865-39.802-64.239c-9.66,0.193-9.679,15.194,0,15
			c4.912-0.099,8.234,1.362,12.052,5.263c3.786,3.868,6.647,10.013,8.518,15.733c4.721,14.438,5.409,30.921,3.028,45.669
			c-1.125,6.968-3.182,14.305-6.021,19.854c-0.7,1.368-1.499,2.682-2.338,3.967c-0.947,1.451-0.512,0.883-1.919,2.463
			c-2.386,2.679-2.667,2.837-5.837,4.343c1.012-0.481-2.019,0.62-2.674,0.786c-0.292,0.074-2.392,0.426-0.489,0.175
			c-0.606,0.08-1.217,0.105-1.827,0.131c-0.599,0.024-1.198-0.006-1.796-0.036c-1.994-0.101,1.607,0.31-0.35-0.029
			c-0.735-0.127-4.251-1.303-2.713-0.65c-4.66-1.974-7.938-5.394-10.457-8.889c-10.831-15.034-14.368-35.247-13.378-53.776
			c0.455-8.521,2.558-17.664,6.741-24.821c1.19-2.036,1.693-2.669,2.629-3.773c0.612-0.721,1.276-1.396,1.948-2.061
			c0.34-0.337,2.685-2.274,1.709-1.546c3.824-2.854,6.058-3.626,10.941-4.478C414.367,405.573,410.32,391.119,400.863,392.768
			L400.863,392.768z"/>
		<path fill="#FFFFFF" d="M590.18,398.134c-34.707,1.788-33.663,49.126-28.896,73.422c4.596,23.425,23.036,64.363,53.906,49.47
			c10.23-4.936,15.528-17.05,18.201-27.396c3.35-12.962,3.582-26.871,1.948-40.098c-2.585-20.929-12.475-55.439-39.524-53.99
			c-9.62,0.515-9.67,15.518,0,15c4.104-0.22,7.134,1.041,9.868,3.468c0.96,0.852,1.832,1.799,2.677,2.764
			c0.109,0.125,1.449,1.841,0.495,0.577c0.416,0.551,0.803,1.124,1.19,1.694c1.792,2.643,3.244,5.509,4.541,8.42
			c0.517,1.162,2.041,5.587,2.765,8.05c1.042,3.55,1.825,7.174,2.475,10.814c1.117,6.27,1.569,13.693,1.437,20.767
			c-0.135,7.214-0.736,12.358-2.528,19.293c-0.377,1.458-0.827,2.897-1.307,4.325c-0.231,0.689-0.49,1.369-0.748,2.048
			c-0.831,2.181,0.595-1.278-0.341,0.808c-0.553,1.231-1.188,2.422-1.859,3.592c-0.322,0.561-0.674,1.104-1.026,1.646
			c-1.086,1.668,0.029,0.105-0.684,0.982c-0.75,0.924-1.592,1.768-2.468,2.57c-0.252,0.231-1.787,1.367-0.274,0.26
			c-0.455,0.334-0.939,0.627-1.422,0.918c-0.479,0.29-0.985,0.534-1.489,0.777c1.726-0.833,0.078-0.073-0.299,0.052
			c-0.539,0.179-1.094,0.304-1.646,0.428c-1.227,0.276,1.279-0.039-0.902,0.089c-4.409,0.26-8.184-1.399-11.294-4.161
			c-6.204-5.508-10.3-14.015-13.201-22.257c-3.568-10.139-5.509-20.675-5.988-31.31c-0.212-4.676-0.057-10.753,0.463-14.579
			c0.305-2.248,0.755-4.474,1.29-6.677c0.255-1.049,0.563-2.084,0.881-3.115c0.162-0.529,1.213-3.369,0.866-2.554
			c1.816-4.265,3.056-6.05,5.974-8.622c0.662-0.546,0.668-0.553,0.02-0.019c0.353-0.247,0.713-0.481,1.082-0.705
			c0.274-0.172,2.68-1.319,1.114-0.677c2.372-0.973,3.393-1.007,4.706-1.075C599.803,412.638,599.852,397.636,590.18,398.134
			L590.18,398.134z"/>
		<path fill="#FFFFFF" d="M460.603,531.443c9.859,0,19.719,0,29.578,0c9.673,0,9.673-15,0-15c-9.859,0-19.719,0-29.578,0
			C450.93,516.443,450.93,531.443,460.603,531.443L460.603,531.443z"/>
		<path fill="#FFFFFF" d="M571.87,213.627c-21.405-2.79-39.907-15.975-60.659-21.227c-11.086-2.806-23.294-2.584-34.664-3.674
			c-12.349-1.184-24.693-2.421-37.071-3.268c-3.08-0.21-6.674,2.421-7.232,5.506c-2.741,15.157,2.495,28.117,11.794,39.925
			c8.017,10.179,18.451,18.83,24.172,30.642c0.897-3.42,1.794-6.841,2.691-10.261c-13.077,6.397-30.455,9.818-44.922,15.595
			c-14.834,5.924-32.863,15.149-35.99,32.55c-0.732,4.072,1.049,8.001,5.238,9.226c34.108,9.972,68.609-0.878,102.579-5.634
			c4.056-0.568,6.215-5.675,5.239-9.226c-1.188-4.319-5.181-5.805-9.226-5.238c-31.184,4.365-63.3,14.786-94.604,5.634
			c1.746,3.075,3.492,6.15,5.238,9.226c2.326-12.941,18.237-19.386,29.878-23.763c14.541-5.468,30.143-8.569,44.14-15.417
			c3.874-1.895,4.366-6.803,2.691-10.261c-5.36-11.067-14.627-19.724-22.585-28.897c-7.294-8.409-13.977-18.459-11.87-30.112
			c-2.411,1.835-4.821,3.671-7.232,5.506c11.753,0.804,23.476,1.955,35.2,3.088c11.821,1.143,24.31,1.038,35.788,4.171
			c21.101,5.76,39.385,18.041,61.405,20.91c4.064,0.53,7.5-3.813,7.5-7.5C579.37,216.639,575.923,214.155,571.87,213.627
			L571.87,213.627z"/>
	</g>
</g>
<g>
</g>
<g>
</g>
<g>
</g>
<g>
</g>
<g>
</g>
<g>
</g>
</svg>
