<?xml version="1.0" encoding="utf-8"?>
<!-- Generator: Adobe Illustrator 16.0.0, SVG Export Plug-In . SVG Version: 6.00 Build 0)  -->
<!DOCTYPE svg PUBLIC "-//W3C//DTD SVG 1.1//EN" "http://www.w3.org/Graphics/SVG/1.1/DTD/svg11.dtd">
<svg version="1.1" id="Layer_1" xmlns="http://www.w3.org/2000/svg" xmlns:xlink="http://www.w3.org/1999/xlink" x="0px" y="0px"
	 width="1000px" height="1000px" viewBox="0 0 1000 1000" enable-background="new 0 0 1000 1000" xml:space="preserve">
<g>
	<g>
		<defs>
			<rect id="SVGID_1_" width="500" height="500"/>
		</defs>
		<clipPath id="SVGID_2_">
			<use xlink:href="#SVGID_1_"  overflow="visible"/>
		</clipPath>
		<g clip-path="url(#SVGID_2_)">
			<defs>
				<rect id="SVGID_3_" width="500" height="500"/>
			</defs>
			<clipPath id="SVGID_4_">
				<use xlink:href="#SVGID_3_"  overflow="visible"/>
			</clipPath>
			<path clip-path="url(#SVGID_4_)" fill="#FFFFFF" d="M423.201,312.063l-26.611-63.045l25.763-63.396
				c1.097-2.699,1.077-5.663-0.056-8.347c-1.133-2.683-3.243-4.765-5.941-5.861L352.96,145.65L326.35,82.605
				c-1.709-4.049-5.653-6.666-10.049-6.666c-1.46,0-2.886,0.289-4.238,0.86l-63.045,26.61l-63.396-25.764
				c-1.313-0.533-2.693-0.804-4.104-0.804c-4.459,0-8.425,2.669-10.104,6.801L145.65,147.04l-63.044,26.61
				c-5.541,2.338-8.145,8.747-5.807,14.287l26.611,63.046l-25.764,63.396c-2.264,5.571,0.427,11.944,5.997,14.208l63.396,25.763
				l26.61,63.045c1.709,4.049,5.654,6.666,10.05,6.666c1.46,0,2.886-0.289,4.237-0.86l63.045-26.611l63.396,25.763
				c1.313,0.534,2.694,0.804,4.104,0.804c4.459,0,8.425-2.669,10.105-6.801l25.763-63.396l63.045-26.61
				C422.935,324.011,425.539,317.602,423.201,312.063 M413.506,317.137l-53.833,22.723l-6.514,2.75l-6.515,2.75l-15.295,6.456
				l6.25-15.38l15.295-6.456l6.514-2.75l6.515-2.75l23.896-10.086c5.04-2.127,7.409-7.958,5.282-12.997l-10.086-23.896l-2.75-6.514
				l-2.75-6.515l-6.456-15.295l6.25-15.38l6.456,15.295l2.75,6.515l2.75,6.514l22.722,53.833
				C414.182,316.411,413.966,316.943,413.506,317.137 M318.482,413.157c-0.115,0-0.226-0.022-0.338-0.068l-54.131-21.998
				l15.295-6.456l24.028,9.765c1.194,0.485,2.45,0.732,3.733,0.732c4.056,0,7.664-2.428,9.192-6.188l9.765-24.028l15.295-6.456
				l-21.998,54.131C319.153,413.009,318.764,413.157,318.482,413.157 M237.881,391.266l-53.833,22.722
				c-0.116,0.049-0.23,0.073-0.349,0.073c-0.278,0-0.664-0.146-0.837-0.555l-22.722-53.832l-2.75-6.515l-2.75-6.514l-6.456-15.295
				l15.38,6.25l6.456,15.295l2.75,6.514l2.75,6.515l10.085,23.895c1.555,3.684,5.144,6.064,9.143,6.064
				c1.329,0,2.625-0.263,3.855-0.782l23.896-10.086l6.515-2.75l6.514-2.75l15.295-6.456l15.38,6.25l-15.295,6.456l-6.514,2.75
				L237.881,391.266z M87.409,319.322c-0.462-0.188-0.686-0.717-0.498-1.179l21.998-54.132l6.456,15.295l-9.765,24.029
				c-2.059,5.068,0.388,10.866,5.456,12.926l24.029,9.765l6.456,15.295L87.409,319.322z M86.494,182.863l53.832-22.722l6.514-2.75
				l6.515-2.75l15.294-6.456l-6.25,15.38l-15.295,6.456l-6.515,2.749l-6.515,2.75l-23.896,10.085
				c-5.039,2.127-7.409,7.958-5.282,12.998l10.086,23.896l2.75,6.514l2.75,6.515l6.456,15.294l-6.25,15.38l-6.456-15.294
				l-2.75-6.515l-2.75-6.515l-22.722-53.833C85.818,183.589,86.034,183.058,86.494,182.863 M181.518,86.843
				c0.115,0,0.226,0.022,0.338,0.068l54.132,21.999l-15.295,6.456l-24.029-9.765c-1.194-0.485-2.45-0.731-3.733-0.731
				c-4.056,0-7.665,2.428-9.192,6.187l-9.765,24.029l-15.295,6.456l21.999-54.132C180.848,86.991,181.237,86.843,181.518,86.843
				 M262.12,108.734l53.833-22.722c0.116-0.049,0.23-0.073,0.349-0.073c0.278,0,0.664,0.145,0.836,0.554l22.722,53.833l2.75,6.514
				l2.75,6.515l6.456,15.294l-15.38-6.25l-6.456-15.295l-2.75-6.515l-2.75-6.515l-10.086-23.896
				c-1.555-3.684-5.143-6.064-9.142-6.064c-1.329,0-2.626,0.263-3.855,0.782L277.5,114.984l-6.514,2.75l-6.515,2.75l-15.295,6.456
				l-15.38-6.25l15.295-6.456l6.515-2.75L262.12,108.734z M412.591,180.677c0.288,0.117,0.427,0.329,0.494,0.487
				c0.066,0.157,0.121,0.405,0.004,0.691l-21.998,54.132l-6.456-15.295l9.765-24.029c0.998-2.455,0.98-5.151-0.051-7.592
				c-1.03-2.441-2.95-4.335-5.405-5.333l-24.029-9.765l-6.456-15.295L412.591,180.677z M376.474,214.215l-2.662,6.551l-6.251,15.38
				l-6.456-15.295l5.341-13.143c0.379-0.932,0.585-1.902,0.639-2.878c0.074-1.34-0.147-2.689-0.685-3.962
				c-0.537-1.272-1.35-2.373-2.361-3.254c-0.737-0.642-1.576-1.171-2.508-1.549l-13.143-5.342l-6.456-15.294l15.38,6.25l6.551,2.662
				l6.551,2.662l14.691,5.97l-5.97,14.691L376.474,214.215z M318.321,357.313l-2.662,6.551l-2.662,6.551l-5.97,14.69l-14.691-5.97
				l-6.551-2.662l-6.551-2.663l-15.38-6.25l15.295-6.456l13.142,5.341c0.927,0.376,1.896,0.583,2.886,0.636
				c0.159,0.008,0.317,0.023,0.477,0.023c2.646,0,5.077-1.151,6.74-3.07c0.634-0.731,1.161-1.57,1.54-2.504l5.341-13.142
				l15.295-6.456L318.321,357.313z M244.238,364.987l-6.515,2.749l-15.295,6.456l-6.514,2.75l-6.515,2.75l-14.609,6.167
				l-6.167-14.61l-2.75-6.514l-2.75-6.515l-6.456-15.295l-2.75-6.514l-2.75-6.515l-6.456-15.295l15.379,6.25l6.456,15.295
				l2.75,6.515l2.75,6.514l5.517,13.07c0.392,0.929,0.932,1.762,1.579,2.485c1.665,1.862,4.063,2.978,6.656,2.978
				c0.201,0,0.399-0.017,0.598-0.03c0.988-0.065,1.954-0.285,2.876-0.675l13.07-5.517l6.515-2.749l6.515-2.75l15.295-6.456
				l15.38,6.25l-15.295,6.455L244.238,364.987z M123.527,285.785l2.662-6.551l6.25-15.38l6.456,15.294l-5.341,13.143
				c-0.378,0.932-0.585,1.902-0.639,2.878c-0.075,1.34,0.147,2.689,0.685,3.962s1.35,2.373,2.361,3.254
				c0.737,0.642,1.576,1.171,2.507,1.55l13.143,5.34l6.456,15.295l-15.38-6.25l-6.551-2.663l-6.551-2.662l-14.69-5.97l5.97-14.691
				L123.527,285.785z M181.679,142.687l2.662-6.551l2.662-6.551l5.97-14.69l14.691,5.97l6.551,2.662l6.551,2.663l15.38,6.25
				l-15.295,6.456l-13.143-5.341c-0.926-0.376-1.896-0.583-2.885-0.635c-0.16-0.008-0.318-0.023-0.478-0.023
				c-2.646,0-5.077,1.151-6.741,3.07c-0.634,0.73-1.161,1.568-1.54,2.502l-5.341,13.143l-15.295,6.456L181.679,142.687z
				 M255.754,135.01l6.515-2.75l15.293-6.457l6.515-2.749l6.514-2.75l14.616-6.17l6.169,14.617l2.75,6.515l2.75,6.515l6.456,15.295
				l2.75,6.515l2.75,6.515l6.456,15.295l-15.38-6.25l-6.456-15.295l-2.75-6.515l-2.75-6.514l-5.517-13.071
				c-0.393-0.928-0.932-1.76-1.579-2.484c-1.665-1.862-4.063-2.978-6.656-2.978c-0.201,0-0.399,0.017-0.598,0.03
				c-0.988,0.066-1.953,0.285-2.875,0.674l-13.07,5.517l-6.515,2.75l-6.515,2.749l-15.295,6.456l-15.387-6.253l15.294-6.457
				L255.754,135.01z M355.606,207.822l-2.663,6.55l-2.662,6.551l-6.25,15.38l-6.456-15.294l0.917-2.257
				c0.8-1.968,0.786-4.129-0.04-6.086c-0.826-1.957-2.365-3.475-4.333-4.274l-2.257-0.917l-6.456-15.295l15.38,6.25l6.551,2.662
				l6.551,2.662l2.893,1.176L355.606,207.822z M357.376,293.636l-2.877,1.214l-6.515,2.75l-6.514,2.75l-15.295,6.456l-6.515,2.75
				l-6.515,2.75l-15.294,6.455l6.25-15.38l15.294-6.455l6.514-2.75l6.515-2.75l2.244-0.947c1.958-0.826,3.477-2.365,4.276-4.333
				c0.8-1.968,0.785-4.129-0.041-6.086l-0.948-2.245l-2.75-6.515l-2.75-6.514l-6.455-15.295l6.25-15.38l6.456,15.295l2.75,6.515
				l2.75,6.515l6.456,15.295l2.75,6.515l2.75,6.515L357.376,293.636z M301.571,340.787l-2.663,6.551l-2.662,6.551l-1.176,2.893
				l-2.893-1.176l-6.551-2.662l-6.551-2.662l-15.38-6.25l15.295-6.456l2.257,0.917c0.957,0.389,1.963,0.586,2.993,0.586
				c3.251,0,6.144-1.947,7.368-4.96l0.917-2.256l15.294-6.456L301.571,340.787z M244.081,341.457l-6.515,2.75l-15.295,6.455
				l-6.514,2.75l-6.515,2.75l-2.877,1.215l-1.214-2.877l-2.75-6.515l-2.75-6.515l-6.456-15.295l-2.75-6.514l-2.75-6.515
				l-6.456-15.295l15.38,6.25l6.456,15.295l2.75,6.515l2.75,6.515l0.948,2.245c1.246,2.953,4.123,4.86,7.327,4.86
				c1.066,0,2.105-0.211,3.091-0.627l2.245-0.947l6.514-2.75l6.515-2.75l15.295-6.456l15.38,6.25l-15.295,6.456L244.081,341.457z
				 M144.394,292.178l2.662-6.551l2.662-6.55l6.25-15.38l6.457,15.295l-0.917,2.257c-0.8,1.968-0.786,4.129,0.041,6.086
				s2.364,3.475,4.333,4.275l2.258,0.917l6.455,15.295l-15.38-6.25l-6.551-2.662l-6.551-2.662l-2.894-1.176L144.394,292.178z
				 M142.624,206.364l2.877-1.215l6.514-2.75l6.515-2.75l15.295-6.456l6.515-2.75l6.515-2.75l15.295-6.456l-6.25,15.38
				l-15.295,6.456l-6.514,2.75l-6.515,2.75l-2.245,0.948c-4.039,1.705-5.938,6.378-4.234,10.418l0.948,2.245l2.75,6.515l2.75,6.514
				l6.456,15.295l-6.25,15.38l-6.456-15.295l-2.75-6.514l-2.75-6.514l-6.456-15.295l-2.75-6.515l-2.75-6.515L142.624,206.364z
				 M198.431,159.208l2.66-6.546l2.663-6.551l1.175-2.894l2.894,1.176l6.55,2.662l6.545,2.66l15.386,6.252l-15.295,6.456
				l-2.257-0.917c-0.957-0.389-1.963-0.586-2.993-0.586c-3.251,0-6.144,1.946-7.368,4.959l-0.917,2.257l-15.295,6.456
				L198.431,159.208z M255.92,158.543l6.514-2.75l15.295-6.456l6.514-2.75l6.515-2.75l2.878-1.215l1.215,2.878l2.75,6.515
				l2.75,6.514l6.455,15.296l2.75,6.514l2.75,6.515l6.456,15.295l-15.38-6.25l-6.456-15.295l-2.75-6.514l-2.75-6.515l-0.948-2.245
				c-1.247-2.952-4.123-4.86-7.327-4.86c-1.066,0-2.106,0.21-3.091,0.627l-2.245,0.947l-6.514,2.75l-6.515,2.75l-15.295,6.456
				l-15.38-6.25l15.295-6.456L255.92,158.543z M326.752,221.082l-6.25,15.38l-11.622-27.534l15.38,6.25l4.198,1.706L326.752,221.082
				z M328.895,282.062l-4.174,1.762l-15.294,6.456l-6.515,2.75l-6.515,2.75l-45.959,19.399l-6.515,2.75l-6.514,2.75l-15.295,6.456
				l-4.175,1.762l-1.762-4.175l-6.456-15.294l-2.75-6.515l-2.75-6.515l-19.398-45.958l-2.75-6.515l-2.75-6.515l-6.456-15.294
				l-1.762-4.174l4.174-1.762l15.295-6.456l6.515-2.75l6.515-2.75l45.959-19.399l6.515-2.75l6.515-2.75l15.295-6.457l4.174-1.762
				l1.762,4.174l6.456,15.295l2.75,6.515l2.75,6.514l19.399,45.96l2.75,6.514l2.75,6.515l6.456,15.294L328.895,282.062z
				 M284.822,324.261l-1.706,4.197l-4.198-1.706l-15.38-6.25l27.534-11.622L284.822,324.261z M173.249,278.919l6.25-15.38
				l11.622,27.534l-15.38-6.25l-4.197-1.706L173.249,278.919z M215.178,175.74l1.706-4.198l4.198,1.706l15.38,6.25l-27.534,11.622
				L215.178,175.74z M185.401,164.708l-6.252,15.384l-15.295,6.456l-6.514,2.75l-6.515,2.75l-13.07,5.516
				c-0.94,0.397-1.77,0.943-2.49,1.59c-2.034,1.83-3.124,4.511-2.943,7.242c0.064,0.965,0.278,1.936,0.675,2.876l5.517,13.07
				l2.75,6.515l2.75,6.514l6.456,15.295l-6.25,15.38l-6.456-15.295l-2.75-6.515l-2.75-6.514l-6.457-15.295l-2.749-6.515l-2.75-6.515
				l-6.166-14.609l14.609-6.167l6.515-2.75l6.515-2.75l15.295-6.457l6.515-2.75l6.515-2.75L185.401,164.708z M314.601,335.288
				l6.25-15.38l15.295-6.456l6.515-2.75l6.515-2.75l13.07-5.517c0.926-0.391,1.758-0.931,2.486-1.583
				c1-0.895,1.797-2.006,2.317-3.286c0.52-1.28,0.724-2.632,0.631-3.971c-0.067-0.975-0.286-1.942-0.678-2.868l-5.517-13.07
				l-2.75-6.514l-2.749-6.515l-6.457-15.295l6.251-15.381l6.456,15.295l2.75,6.515l2.75,6.514l6.456,15.295l2.75,6.515l2.75,6.515
				l6.167,14.609l-14.609,6.167l-6.515,2.75l-6.515,2.75l-15.294,6.456l-6.515,2.75l-6.515,2.749L314.601,335.288z"/>
		</g>
	</g>
</g>
<g>
	<g>
		<defs>
			<rect id="SVGID_5_" x="500" y="500" width="500" height="500"/>
		</defs>
		<clipPath id="SVGID_6_">
			<use xlink:href="#SVGID_5_"  overflow="visible"/>
		</clipPath>
		<g clip-path="url(#SVGID_6_)">
			<defs>
				<rect id="SVGID_7_" x="500" y="500" width="500" height="500"/>
			</defs>
			<clipPath id="SVGID_8_">
				<use xlink:href="#SVGID_7_"  overflow="visible"/>
			</clipPath>
			<path clip-path="url(#SVGID_8_)" fill="#FFFFFF" d="M923.201,812.063l-26.611-63.046l25.764-63.396
				c1.097-2.699,1.077-5.663-0.056-8.347s-3.243-4.766-5.941-5.862L852.96,645.65l-26.61-63.045
				c-1.709-4.05-5.652-6.666-10.049-6.666c-1.46,0-2.886,0.289-4.237,0.86l-63.046,26.61l-63.396-25.764
				c-1.313-0.533-2.692-0.804-4.104-0.804c-4.459,0-8.425,2.669-10.104,6.801L645.65,647.04l-63.045,26.61
				c-5.54,2.338-8.145,8.747-5.807,14.286l26.611,63.046l-25.764,63.396c-2.264,5.571,0.427,11.944,5.997,14.209l63.396,25.763
				l26.61,63.045c1.709,4.05,5.654,6.666,10.05,6.666c1.46,0,2.886-0.289,4.237-0.859l63.046-26.61l63.396,25.763
				c1.313,0.533,2.693,0.804,4.104,0.804c4.459,0,8.425-2.669,10.104-6.801l25.763-63.396l63.046-26.61
				C922.935,824.011,925.539,817.602,923.201,812.063 M913.506,817.137l-53.832,22.723l-6.514,2.749l-6.516,2.75l-15.295,6.456
				l6.251-15.381l15.295-6.456l6.515-2.749l6.515-2.75l23.896-10.086c5.04-2.128,7.409-7.959,5.281-12.997l-10.086-23.896
				l-2.75-6.515l-2.749-6.515l-6.456-15.295l6.25-15.38l6.456,15.295l2.75,6.515l2.75,6.515l22.722,53.832
				C914.183,816.411,913.966,816.943,913.506,817.137 M818.482,913.157c-0.115,0-0.227-0.022-0.339-0.068l-54.132-21.998
				l15.295-6.456l24.028,9.765c1.194,0.485,2.45,0.732,3.733,0.732c4.057,0,7.665-2.429,9.192-6.188l9.765-24.028l15.296-6.456
				l-21.998,54.131C819.153,913.009,818.764,913.157,818.482,913.157 M737.881,891.266l-53.832,22.723
				c-0.116,0.049-0.23,0.072-0.349,0.072c-0.278,0-0.664-0.145-0.837-0.555l-22.722-53.832l-2.75-6.515l-2.749-6.515l-6.456-15.295
				l15.38,6.25l6.456,15.296l2.749,6.514l2.75,6.515l10.086,23.896c1.556,3.684,5.144,6.064,9.143,6.064
				c1.329,0,2.626-0.263,3.855-0.782l23.896-10.086l6.515-2.75l6.515-2.749l15.295-6.456l15.38,6.25l-15.295,6.456l-6.515,2.75
				L737.881,891.266z M587.409,819.322c-0.463-0.188-0.687-0.717-0.498-1.179l21.998-54.132l6.456,15.295l-9.766,24.028
				c-2.059,5.067,0.389,10.866,5.457,12.926l24.028,9.765l6.455,15.296L587.409,819.322z M586.494,682.863l53.832-22.722l6.515-2.75
				l6.515-2.749l15.295-6.457l-6.25,15.381l-15.296,6.456l-6.514,2.749l-6.515,2.75l-23.896,10.086
				c-5.039,2.127-7.408,7.958-5.281,12.998l10.086,23.896l2.75,6.515l2.749,6.515l6.456,15.294l-6.25,15.381l-6.456-15.295
				l-2.749-6.515l-2.75-6.515l-22.722-53.833C585.818,683.589,586.034,683.058,586.494,682.863 M681.518,586.843
				c0.115,0,0.227,0.022,0.339,0.068l54.133,21.998l-15.296,6.456l-24.028-9.766c-1.194-0.484-2.45-0.73-3.733-0.73
				c-4.057,0-7.665,2.428-9.192,6.187l-9.765,24.029l-15.296,6.455l21.999-54.132C680.848,586.991,681.236,586.843,681.518,586.843
				 M762.119,608.734l53.833-22.723c0.116-0.049,0.229-0.072,0.349-0.072c0.278,0,0.663,0.145,0.836,0.554l22.722,53.833l2.75,6.514
				l2.75,6.516l6.456,15.295l-15.381-6.25l-6.456-15.296l-2.749-6.515l-2.75-6.515l-10.086-23.896
				c-1.555-3.684-5.144-6.063-9.142-6.063c-1.329,0-2.626,0.263-3.855,0.782L777.5,614.984l-6.515,2.75l-6.515,2.75l-15.295,6.455
				l-15.38-6.25l15.295-6.456l6.515-2.749L762.119,608.734z M912.592,680.678c0.287,0.116,0.426,0.329,0.493,0.486
				c0.066,0.157,0.121,0.405,0.004,0.692l-21.998,54.132l-6.456-15.295l9.765-24.028c0.998-2.455,0.98-5.151-0.05-7.593
				c-1.031-2.441-2.95-4.335-5.405-5.333l-24.029-9.765l-6.455-15.296L912.592,680.678z M876.474,714.215l-2.661,6.551
				l-6.251,15.381l-6.456-15.295l5.341-13.143c0.379-0.932,0.585-1.903,0.639-2.879c0.074-1.339-0.147-2.688-0.685-3.961
				c-0.537-1.273-1.349-2.373-2.36-3.254c-0.737-0.643-1.576-1.172-2.509-1.55l-13.143-5.342l-6.455-15.294l15.38,6.25l6.551,2.662
				l6.551,2.662l14.69,5.97l-5.97,14.691L876.474,714.215z M818.32,857.313l-2.662,6.551l-2.661,6.551l-5.971,14.69l-14.69-5.97
				l-6.551-2.662l-6.551-2.662l-15.38-6.251l15.295-6.455l13.143,5.341c0.926,0.376,1.896,0.583,2.886,0.636
				c0.158,0.009,0.317,0.023,0.477,0.023c2.646,0,5.077-1.151,6.741-3.069c0.634-0.731,1.16-1.57,1.54-2.505l5.341-13.143
				l15.295-6.455L818.32,857.313z M744.238,864.986l-6.515,2.75l-15.295,6.455l-6.515,2.751l-6.515,2.749l-14.609,6.167
				l-6.167-14.609l-2.749-6.515l-2.75-6.515l-6.456-15.296l-2.75-6.514l-2.749-6.515l-6.456-15.295l15.38,6.25l6.456,15.295
				l2.75,6.515l2.749,6.514l5.517,13.07c0.393,0.929,0.932,1.762,1.579,2.485c1.665,1.862,4.063,2.978,6.656,2.978
				c0.201,0,0.399-0.017,0.598-0.029c0.988-0.065,1.953-0.285,2.876-0.675l13.07-5.517l6.514-2.75l6.515-2.75l15.296-6.455
				l15.38,6.25l-15.296,6.455L744.238,864.986z M623.526,785.785l2.662-6.551l6.25-15.381l6.456,15.295l-5.341,13.144
				c-0.378,0.932-0.585,1.901-0.639,2.878c-0.074,1.339,0.147,2.688,0.685,3.961c0.537,1.273,1.35,2.373,2.361,3.255
				c0.736,0.642,1.575,1.171,2.508,1.55l13.143,5.341l6.456,15.295l-15.38-6.25l-6.551-2.663l-6.552-2.662l-14.69-5.97l5.97-14.69
				L623.526,785.785z M681.68,642.688l2.662-6.552l2.662-6.551l5.97-14.69l14.691,5.97l6.551,2.662l6.551,2.662l15.38,6.25
				l-15.295,6.456l-13.144-5.341c-0.926-0.377-1.895-0.583-2.885-0.636c-0.159-0.008-0.317-0.022-0.478-0.022
				c-2.646,0-5.077,1.151-6.741,3.069c-0.634,0.73-1.16,1.569-1.539,2.503l-5.342,13.144l-15.294,6.456L681.68,642.688z
				 M755.754,635.01l6.515-2.749l15.294-6.457l6.515-2.749l6.514-2.75l14.617-6.17l6.169,14.617l2.75,6.514l2.749,6.516
				l6.456,15.294l2.75,6.516l2.75,6.514l6.455,15.296l-15.38-6.251l-6.456-15.295l-2.749-6.515l-2.75-6.515l-5.517-13.071
				c-0.393-0.928-0.932-1.76-1.579-2.483c-1.664-1.862-4.063-2.978-6.656-2.978c-0.2,0-0.398,0.016-0.598,0.029
				c-0.988,0.066-1.953,0.285-2.875,0.675l-13.07,5.517l-6.515,2.75l-6.515,2.75l-15.295,6.455l-15.387-6.253l15.294-6.456
				L755.754,635.01z M855.606,707.822l-2.663,6.551l-2.662,6.551l-6.25,15.38l-6.456-15.295l0.918-2.257
				c0.8-1.968,0.785-4.129-0.041-6.086c-0.825-1.957-2.364-3.476-4.333-4.275l-2.257-0.917l-6.455-15.295l15.38,6.25l6.551,2.662
				l6.551,2.662l2.893,1.176L855.606,707.822z M857.376,793.636l-2.877,1.215l-6.515,2.749l-6.515,2.75l-15.295,6.456l-6.515,2.75
				l-6.515,2.75l-15.294,6.455l6.25-15.38l15.294-6.455l6.515-2.751l6.515-2.749l2.244-0.947c1.958-0.826,3.477-2.365,4.276-4.333
				c0.799-1.968,0.784-4.129-0.042-6.086l-0.947-2.245l-2.75-6.515l-2.749-6.514l-6.456-15.295l6.25-15.381l6.456,15.295l2.75,6.515
				l2.749,6.515l6.456,15.296l2.75,6.515l2.75,6.514L857.376,793.636z M801.571,840.786l-2.662,6.552l-2.662,6.551l-1.176,2.894
				l-2.894-1.177l-6.551-2.662l-6.551-2.662l-15.38-6.25l15.295-6.455l2.257,0.916c0.957,0.39,1.964,0.587,2.994,0.587
				c3.251,0,6.143-1.947,7.367-4.96l0.917-2.257l15.295-6.455L801.571,840.786z M744.08,841.457l-6.515,2.75l-15.295,6.455
				l-6.514,2.75l-6.515,2.75l-2.878,1.215l-1.214-2.878l-2.75-6.515l-2.75-6.515l-6.455-15.295l-2.75-6.515l-2.75-6.514
				l-6.456-15.296l15.38,6.25l6.456,15.296l2.75,6.514l2.75,6.515l0.947,2.245c1.246,2.953,4.122,4.86,7.327,4.86
				c1.066,0,2.105-0.211,3.092-0.627l2.244-0.946l6.515-2.75l6.515-2.75l15.295-6.456l15.38,6.25l-15.295,6.456L744.08,841.457z
				 M644.394,792.178l2.662-6.551l2.663-6.551l6.25-15.38l6.456,15.295l-0.917,2.257c-0.801,1.968-0.786,4.129,0.04,6.086
				s2.364,3.476,4.333,4.275l2.257,0.918l6.456,15.295l-15.38-6.251l-6.551-2.662l-6.552-2.662l-2.893-1.176L644.394,792.178z
				 M642.624,706.364l2.878-1.215l6.514-2.749l6.515-2.75l15.295-6.456l6.515-2.75l6.515-2.749l15.295-6.456l-6.25,15.38
				l-15.296,6.456l-6.514,2.749l-6.515,2.751l-2.245,0.947c-4.039,1.705-5.938,6.379-4.234,10.419l0.948,2.244l2.749,6.515
				l2.75,6.515l6.456,15.295l-6.25,15.38l-6.456-15.295l-2.75-6.515l-2.749-6.515l-6.456-15.295l-2.75-6.515l-2.75-6.515
				L642.624,706.364z M698.431,659.209l2.66-6.547l2.662-6.551l1.176-2.893l2.894,1.175l6.551,2.662l6.545,2.66l15.386,6.253
				l-15.295,6.456l-2.257-0.917c-0.957-0.389-1.964-0.587-2.993-0.587c-3.251,0-6.144,1.947-7.368,4.96l-0.917,2.257l-15.295,6.456
				L698.431,659.209z M755.92,658.543l6.515-2.749l15.295-6.456l6.515-2.75l6.515-2.75l2.878-1.215l1.214,2.878l2.75,6.515
				l2.75,6.515l6.455,15.296l2.75,6.514l2.749,6.515l6.456,15.295l-15.38-6.25l-6.456-15.296l-2.75-6.514l-2.749-6.516l-0.948-2.244
				c-1.246-2.953-4.123-4.86-7.326-4.86c-1.066,0-2.106,0.211-3.092,0.627l-2.244,0.947l-6.515,2.75l-6.515,2.749l-15.295,6.456
				l-15.381-6.25l15.295-6.456L755.92,658.543z M826.752,721.082l-6.25,15.38l-11.622-27.533l15.381,6.25l4.197,1.705
				L826.752,721.082z M828.895,782.062l-4.174,1.762l-15.295,6.455l-6.515,2.751l-6.515,2.749l-45.96,19.399l-6.514,2.749
				l-6.515,2.75l-15.295,6.456l-4.175,1.762l-1.762-4.175l-6.456-15.294l-2.749-6.515l-2.75-6.515l-19.399-45.959l-2.749-6.515
				l-2.75-6.515l-6.456-15.295l-1.762-4.175l4.174-1.762l15.296-6.456l6.514-2.749l6.515-2.75l45.96-19.399l6.515-2.749l6.514-2.75
				l15.296-6.456l4.174-1.762l1.762,4.174l6.456,15.296l2.749,6.514l2.75,6.515l19.399,45.96l2.749,6.515l2.75,6.515l6.456,15.294
				L828.895,782.062z M784.821,824.261l-1.705,4.197l-4.197-1.706l-15.38-6.25l27.533-11.622L784.821,824.261z M673.248,778.919
				l6.25-15.38l11.622,27.533l-15.38-6.25l-4.197-1.706L673.248,778.919z M715.179,675.74l1.705-4.197l4.197,1.705l15.381,6.251
				l-27.534,11.621L715.179,675.74z M685.401,664.709l-6.252,15.384l-15.295,6.456l-6.515,2.75l-6.515,2.749l-13.07,5.517
				c-0.939,0.397-1.77,0.943-2.489,1.59c-2.034,1.83-3.124,4.512-2.943,7.242c0.064,0.966,0.278,1.937,0.675,2.877l5.517,13.07
				l2.75,6.514l2.75,6.515l6.455,15.295l-6.25,15.38l-6.456-15.295l-2.749-6.515l-2.75-6.515l-6.456-15.295l-2.749-6.515
				l-2.75-6.514l-6.166-14.61l14.609-6.167l6.515-2.75l6.515-2.75l15.296-6.457l6.515-2.75l6.515-2.75L685.401,664.709z
				 M814.601,835.287l6.25-15.38l15.295-6.456l6.515-2.749l6.515-2.75l13.07-5.517c0.927-0.392,1.759-0.932,2.486-1.583
				c1-0.896,1.797-2.006,2.317-3.286c0.52-1.28,0.724-2.632,0.631-3.971c-0.066-0.975-0.286-1.942-0.678-2.868l-5.517-13.07
				l-2.749-6.515l-2.75-6.515l-6.456-15.294l6.251-15.381l6.455,15.294l2.751,6.515l2.749,6.515l6.456,15.295l2.75,6.515
				l2.749,6.515l6.167,14.609l-14.609,6.167l-6.515,2.75l-6.515,2.749l-15.295,6.456l-6.515,2.75l-6.515,2.749L814.601,835.287z"/>
		</g>
	</g>
</g>
<g>
	<g>
		<defs>
			<rect id="SVGID_9_" x="500" width="500" height="500"/>
		</defs>
		<clipPath id="SVGID_10_">
			<use xlink:href="#SVGID_9_"  overflow="visible"/>
		</clipPath>
		<g clip-path="url(#SVGID_10_)">
			<defs>
				<rect id="SVGID_11_" x="500" width="500" height="500"/>
			</defs>
			<clipPath id="SVGID_12_">
				<use xlink:href="#SVGID_11_"  overflow="visible"/>
			</clipPath>
			<g clip-path="url(#SVGID_12_)">
				<defs>
					<rect id="SVGID_13_" x="594.064" y="159.505" width="245.104" height="246.394"/>
				</defs>
				<clipPath id="SVGID_14_">
					<use xlink:href="#SVGID_13_"  overflow="visible"/>
				</clipPath>
				<g clip-path="url(#SVGID_14_)">
					<defs>
						<rect id="SVGID_15_" x="594.064" y="159.505" width="245.104" height="246.394"/>
					</defs>
					<clipPath id="SVGID_16_">
						<use xlink:href="#SVGID_15_"  overflow="visible"/>
					</clipPath>
					<path clip-path="url(#SVGID_16_)" fill="#FFFFFF" d="M636.703,159.505c-33.887,33.573-16.031,106.441,39.926,162.921
						l0.135,0.137c55.768,56.663,128.406,75.441,162.405,41.982c-56.669,55.767-147.645,55.039-203.412-1.625
						C579.799,306.439,580.225,215.459,636.703,159.505"/>
				</g>
			</g>
		</g>
		<g clip-path="url(#SVGID_10_)">
			<defs>
				<rect id="SVGID_17_" x="500" width="500" height="500"/>
			</defs>
			<clipPath id="SVGID_18_">
				<use xlink:href="#SVGID_17_"  overflow="visible"/>
			</clipPath>
			<g clip-path="url(#SVGID_18_)">
				<defs>
					<rect id="SVGID_19_" x="660.495" y="94.102" width="245.443" height="246.058"/>
				</defs>
				<clipPath id="SVGID_20_">
					<use xlink:href="#SVGID_19_"  overflow="visible"/>
				</clipPath>
				<g clip-path="url(#SVGID_20_)">
					<defs>
						<rect id="SVGID_21_" x="660.495" y="94.102" width="245.443" height="246.058"/>
					</defs>
					<clipPath id="SVGID_22_">
						<use xlink:href="#SVGID_21_"  overflow="visible"/>
					</clipPath>
					<path clip-path="url(#SVGID_22_)" fill="#FFFFFF" d="M863.91,136.74l-0.002,0.003c56.145,56.289,56.023,147.271-0.266,203.417
						c33.774-33.688,15.673-106.497-40.473-162.786l-0.132-0.139c-55.957-56.48-128.656-75.014-162.543-41.44
						C716.973,79.839,807.953,80.259,863.91,136.74"/>
				</g>
			</g>
		</g>
		<g clip-path="url(#SVGID_10_)">
			<defs>
				<rect id="SVGID_23_" x="500" width="500" height="500"/>
			</defs>
			<clipPath id="SVGID_24_">
				<use xlink:href="#SVGID_23_"  overflow="visible"/>
			</clipPath>
			<path clip-path="url(#SVGID_24_)" fill="#FFFFFF" d="M747.808,227.294c-25.417-13.278-69.487-49.026-115.632-95.171
				c46.103,46.103,81.828,90.137,95.139,115.566c-2.563,17.688-14.355,39.352-33.293,58.291
				c18.938-18.938,40.603-30.729,58.29-33.292c25.43,13.31,69.464,49.036,115.565,95.138
				c-46.145-46.146-81.893-90.215-95.17-115.631c2.596-17.668,14.377-39.277,33.272-58.172
				C787.084,212.917,765.475,224.699,747.808,227.294 M764.731,264.732c-8.142-8.142-21.321-8.142-29.462,0
				c8.141-8.142,8.141-21.321,0-29.463c8.141,8.142,21.32,8.142,29.462,0C756.59,243.411,756.59,256.59,764.731,264.732"/>
		</g>
	</g>
</g>
<g>
	<g>
		<defs>
			<rect id="SVGID_25_" x="0" y="500" width="500" height="500"/>
		</defs>
		<clipPath id="SVGID_26_">
			<use xlink:href="#SVGID_25_"  overflow="visible"/>
		</clipPath>
		<g clip-path="url(#SVGID_26_)">
			<defs>
				<rect id="SVGID_27_" x="0" y="500" width="500" height="500"/>
			</defs>
			<clipPath id="SVGID_28_">
				<use xlink:href="#SVGID_27_"  overflow="visible"/>
			</clipPath>
			<g clip-path="url(#SVGID_28_)">
				<defs>
					<rect id="SVGID_29_" x="94.065" y="659.505" width="245.104" height="246.395"/>
				</defs>
				<clipPath id="SVGID_30_">
					<use xlink:href="#SVGID_29_"  overflow="visible"/>
				</clipPath>
				<g clip-path="url(#SVGID_30_)">
					<defs>
						<rect id="SVGID_31_" x="94.065" y="659.505" width="245.104" height="246.395"/>
					</defs>
					<clipPath id="SVGID_32_">
						<use xlink:href="#SVGID_31_"  overflow="visible"/>
					</clipPath>
					<path clip-path="url(#SVGID_32_)" fill="#FFFFFF" d="M136.703,659.505c-33.887,33.574-16.031,106.441,39.927,162.922
						l0.134,0.137c55.768,56.663,128.406,75.441,162.406,41.981c-56.669,55.768-147.646,55.039-203.413-1.624
						C79.799,806.44,80.225,715.46,136.703,659.505"/>
				</g>
			</g>
		</g>
		<g clip-path="url(#SVGID_26_)">
			<defs>
				<rect id="SVGID_33_" x="0" y="500" width="500" height="500"/>
			</defs>
			<clipPath id="SVGID_34_">
				<use xlink:href="#SVGID_33_"  overflow="visible"/>
			</clipPath>
			<g clip-path="url(#SVGID_34_)">
				<defs>
					<rect id="SVGID_35_" x="160.495" y="594.103" width="245.443" height="246.057"/>
				</defs>
				<clipPath id="SVGID_36_">
					<use xlink:href="#SVGID_35_"  overflow="visible"/>
				</clipPath>
				<g clip-path="url(#SVGID_36_)">
					<defs>
						<rect id="SVGID_37_" x="160.495" y="594.103" width="245.443" height="246.057"/>
					</defs>
					<clipPath id="SVGID_38_">
						<use xlink:href="#SVGID_37_"  overflow="visible"/>
					</clipPath>
					<path clip-path="url(#SVGID_38_)" fill="#FFFFFF" d="M363.911,636.74l-0.003,0.003c56.145,56.289,56.024,147.271-0.265,203.416
						c33.774-33.687,15.673-106.496-40.472-162.785l-0.132-0.14c-55.958-56.48-128.657-75.014-162.543-41.439
						C216.972,579.84,307.953,580.26,363.911,636.74"/>
				</g>
			</g>
		</g>
		<g clip-path="url(#SVGID_26_)">
			<defs>
				<rect id="SVGID_39_" x="0" y="500" width="500" height="500"/>
			</defs>
			<clipPath id="SVGID_40_">
				<use xlink:href="#SVGID_39_"  overflow="visible"/>
			</clipPath>
			<path clip-path="url(#SVGID_40_)" fill="#FFFFFF" d="M247.808,727.295c-25.417-13.277-69.487-49.025-115.632-95.171
				c46.103,46.103,81.828,90.136,95.138,115.565c-2.563,17.688-14.355,39.353-33.292,58.291
				c18.938-18.938,40.603-30.73,58.29-33.293c25.43,13.311,69.464,49.035,115.566,95.139
				c-46.145-46.146-81.893-90.216-95.171-115.632c2.596-17.668,14.377-39.277,33.273-58.173
				C287.084,712.917,265.475,724.699,247.808,727.295 M264.732,764.732c-8.142-8.142-21.321-8.142-29.463,0
				c8.142-8.142,8.142-21.321,0-29.463c8.142,8.142,21.321,8.142,29.463,0C256.59,743.411,256.59,756.591,264.732,764.732"/>
		</g>
	</g>
</g>
<g>
</g>
<g>
</g>
<g>
</g>
<g>
</g>
<g>
</g>
<g>
</g>
</svg>
