<?xml version="1.0" encoding="utf-8"?>
<!-- Generator: Adobe Illustrator 16.0.0, SVG Export Plug-In . SVG Version: 6.00 Build 0)  -->
<!DOCTYPE svg PUBLIC "-//W3C//DTD SVG 1.1//EN" "http://www.w3.org/Graphics/SVG/1.1/DTD/svg11.dtd">
<svg version="1.1" id="Layer_1" xmlns="http://www.w3.org/2000/svg" xmlns:xlink="http://www.w3.org/1999/xlink" x="0px" y="0px"
	 width="1000px" height="1000px" viewBox="0 0 1000 1000" enable-background="new 0 0 1000 1000" xml:space="preserve">
<g>
	<g id="XMLID_1_">
		<g>
			<path fill="#FFFFFF" d="M246.54,222.912c-1.107,1.914-2.666,3.522-4.418,4.847c-4.581,3.461-10.385,5.169-15.994,6.015
				c-6.104,0.913-12.444,0.824-18.492-0.45c-4.914-1.035-10.223-2.933-13.623-6.817l-0.596-0.111
				c7.913-10.724,41.942-9.333,53.89-10.083l0.089-0.034c1.157,0.557,0.646,2.816,0.39,3.723
				C247.492,221.019,247.069,221.993,246.54,222.912z"/>
			<path fill="#FFFFFF" d="M148.553,224.937c-6.716,1.491-16.978,1.563-24.028-0.462c0.033-6.822-0.062-13.634,1.842-20.055
				l0.829,0.245c1.252,0.139,2.365,0.835,3.618,1.113l0.495,0.345C138.364,208.476,149.338,217.102,148.553,224.937z"/>
			<path fill="#FFFFFF" d="M85.676,278.538c3.044,0.011,5.693,0.579,8.681,0.045c1.603-0.285,3.216-0.529,4.83-0.752
				c10.312-1.413,21.241-2.375,31.57-0.668c3.678,0.613,8.236,1.62,10.717,4.675c2.604,3.2,1.151,7.351-0.762,10.506
				c-6.377,12.053-32.638,17.05-47.457,19.633c-6.556-3.974-10.885-10.646-10.54-21.987
				C82.872,285.327,83.951,281.615,85.676,278.538z"/>
		</g>
		<g>
			<path fill="none" stroke="#FFFFFF" stroke-width="10" stroke-miterlimit="10" d="M399.363,323.691
				c12.543-2.349,21.163-14.107,31.353-21.159c10.19-7.841,20.379-14.891,25.081-27.435c6.271-16.461,3.133-37.63,3.133-54.87
				c0-16.461,3.923-38.409-3.133-53.295c-7.835-18.024-32.138-23.512-49.377-29.783c-36.055-14.898-70.541-28.219-109.732-29.784
				c-15.671-0.784-36.834-3.138-50.947,3.133c-20.378,7.835-44.675,21.948-60.351,36.055c-16.455,15.676-34.485,29.784-50.946,44.68
				c-4.274,4.091-6.7,8.531-8.075,13.184c-1.903,6.422-1.809,13.234-1.842,20.056c-0.039,9.06-0.3,18.142-5.754,26.328
				c-8.798,13.195-26.149,15.309-33.094,27.735c-1.725,3.077-2.805,6.788-2.961,11.452c-0.345,11.342,3.985,18.013,10.54,21.987
				c8.392,5.103,20.434,5.793,30.996,6.233c15.677,0.777,31.353,3.133,46.245,0c18.815-3.141,28.22-15.678,43.896-23.519"/>
			<path fill="none" stroke="#FFFFFF" stroke-width="10" stroke-miterlimit="10" d="M172.85,322.912
				c13.322,6.267,29.783,15.677,43.891,18.811c12.543,2.348,26.649,1.569,39.188,2.348c26.161,1.542,59.867,3.834,84.079-5.715
				c0.457-0.177,0.907-0.361,1.358-0.55"/>
			<path fill="none" stroke="#FFFFFF" stroke-width="10" stroke-miterlimit="10" d="M85.598,278.538c0.028,0,0.05,0,0.078,0
				c3.044,0.011,5.693,0.579,8.681,0.045c1.603-0.285,3.216-0.529,4.83-0.752c10.312-1.413,21.241-2.375,31.57-0.668
				c3.678,0.613,8.236,1.62,10.717,4.675c2.604,3.2,1.151,7.351-0.762,10.506c-6.377,12.053-32.638,17.05-47.457,19.633
				c-1.503,0.267-2.883,0.5-4.118,0.718c-0.05,0.011-0.105,0.016-0.156,0.027"/>
			<path fill="none" stroke="#FFFFFF" stroke-width="10" stroke-miterlimit="10" d="M192.444,228.069
				c0.256-0.589,0.584-1.146,0.974-1.674c7.913-10.724,41.942-9.333,53.89-10.083"/>
			<path fill="none" stroke="#FFFFFF" stroke-width="10" stroke-miterlimit="10" d="M194.014,226.506
				c3.4,3.884,8.708,5.782,13.623,6.817c6.048,1.274,12.388,1.363,18.492,0.45c5.609-0.846,11.413-2.554,15.994-6.015
				c1.752-1.325,3.312-2.933,4.418-4.847c0.529-0.919,0.952-1.893,1.247-2.911c0.256-0.907,0.768-3.167-0.39-3.723"/>
			<path fill="none" stroke="#FFFFFF" stroke-width="10" stroke-miterlimit="10" d="M131.308,206.122
				c7.056,2.354,18.03,10.98,17.245,18.815c-6.716,1.491-16.978,1.563-24.028-0.462c-0.362-0.1-0.712-0.211-1.052-0.323"/>
			<path fill="none" stroke="#FFFFFF" stroke-width="10" stroke-miterlimit="10" d="M130.813,205.777
				c-1.252-0.278-2.365-0.974-3.618-1.113"/>
			<path fill="none" stroke="#FFFFFF" stroke-width="10" stroke-miterlimit="10" d="M109.049,336.246
				c6.177,8.67,18.331,14.808,27.746,15.61c-0.278-6.677-6.399-15.581-10.573-20.869c-3.617-4.452-8.904-6.677-12.521-11.129"/>
			<path fill="none" stroke="#FFFFFF" stroke-width="10" stroke-miterlimit="10" d="M109.049,336.246
				c-0.913-4.269-2.009-8.648-3.974-11.102C105.154,329.117,106.65,332.873,109.049,336.246z"/>
			<path fill="none" stroke="#FFFFFF" stroke-width="10" stroke-miterlimit="10" d="M89.215,312.623
				c-0.028,0.022-0.05,0.05-0.078,0.073c-11.119,10.501-25.554,9.95-39.433,11.892c4.452,15.86,37.563,6.678,46.467-0.556
				c2.226,9.46-1.391,18.364,4.174,27.268c3.061,4.73,9.46,12.799,15.025,14.19c1.669-5.843-2.782-15.86-4.452-21.146
				c-0.69-2.176-1.23-5.109-1.87-8.098"/>
			<path fill="none" stroke="#FFFFFF" stroke-width="10" stroke-miterlimit="10" d="M343.252,325.7
				c-0.078,0.606-0.172,1.213-0.273,1.809c-0.634,3.772-1.691,7.356-2.972,10.845c-2.793,7.613-6.649,14.775-9.554,22.405
				c-4.452,10.016-2.783,18.364-15.026,21.146c-11.129,2.226-22.259-3.339-32.832-2.227c3.338,7.235,23.929,18.365,32.276,17.251
				c-13.355,8.903-36.729,16.138-42.85,32.276c18.364-2.226,33.946-16.695,53.423-18.921c2.226,5.565-1.113,12.243,0.556,17.808
				c1.669,5.008,7.235,9.46,10.017,13.912c-1.669-10.017-2.226-28.381,2.227-37.841c7.234-13.912,27.268-18.364,37.284-30.606
				c7.791-10.574,15.025-27.268,19.477-39.511c5.565-17.251-5.008-26.155-21.703-28.938c-11.686-2.782-38.397,5.565-31.163,22.26"/>
		</g>
	</g>
	<g>
	</g>
	<g>
	</g>
	<g>
	</g>
	<g>
	</g>
	<g>
	</g>
	<g>
	</g>
</g>
<g>
	<path fill="#E3E3E3" d="M675.261,173.486l48.574-62.878c3.462-4.626,7.58-8.024,12.355-10.195c4.764-2.17,9.75-3.25,14.959-3.25
		s10.195,1.08,14.96,3.25c4.774,2.171,8.883,5.569,12.355,10.195l48.573,62.878l73.729,24.721
		c7.496,2.308,13.425,6.574,17.786,12.789c4.319,6.215,6.479,13.086,6.479,20.603c0,3.462-0.508,6.935-1.503,10.407
		c-1.017,3.462-2.689,6.786-4.977,9.974l-47.727,67.641l1.736,71.125c0.296,10.121-3.028,18.654-9.952,25.579
		c-6.945,6.944-15.034,10.417-24.309,10.417c-0.571,0-3.747-0.444-9.528-1.291l-77.625-21.683l-77.625,21.683
		c-1.439,0.55-3.038,0.932-4.764,1.059c-1.736,0.169-3.325,0.232-4.775,0.232c-9.253,0-17.342-3.473-24.287-10.417
		c-6.935-6.925-10.259-15.458-9.973-25.579l1.736-71.548l-47.271-67.218c-2.309-3.188-3.971-6.512-4.987-9.974
		c-1.006-3.473-1.514-6.945-1.514-10.407c0-7.23,2.097-13.953,6.289-20.168s10.047-10.63,17.563-13.224L675.261,173.486z
		 M696.51,203.405l-84.126,27.76l53.772,77.614l-1.736,82.834l86.729-23.842l86.73,24.266l-1.736-83.258l53.782-76.757
		l-84.146-28.617l-54.63-71.548L696.51,203.405z"/>
</g>
<g>
	<g id="XMLID_2_">
		<g>
			<path fill="#FFFFFF" d="M714.192,713.098c-1.107,1.914-2.666,3.521-4.418,4.847c-4.581,3.461-10.385,5.169-15.993,6.015
				c-6.105,0.912-12.444,0.824-18.492-0.45c-4.914-1.035-10.223-2.933-13.623-6.817l-0.596-0.111
				c7.912-10.724,41.942-9.332,53.89-10.083l0.089-0.034c1.158,0.557,0.646,2.816,0.391,3.723
				C715.145,711.205,714.721,712.178,714.192,713.098z"/>
			<path fill="#FFFFFF" d="M616.205,715.123c-6.716,1.49-16.978,1.563-24.027-0.463c0.033-6.822-0.063-13.634,1.842-20.055
				l0.828,0.244c1.252,0.139,2.365,0.835,3.617,1.113l0.496,0.344C606.017,698.661,616.99,707.287,616.205,715.123z"/>
			<path fill="#FFFFFF" d="M553.328,768.723c3.045,0.012,5.693,0.58,8.682,0.045c1.603-0.285,3.217-0.528,4.83-0.752
				c10.312-1.413,21.241-2.375,31.57-0.668c3.678,0.613,8.236,1.619,10.717,4.676c2.605,3.199,1.152,7.351-0.762,10.506
				c-6.377,12.053-32.638,17.051-47.457,19.633c-6.556-3.975-10.885-10.646-10.54-21.987
				C550.523,775.512,551.604,771.801,553.328,768.723z"/>
		</g>
		<g>
			<path fill="none" stroke="#FFFFFF" stroke-width="10" stroke-miterlimit="10" d="M867.016,813.877
				c12.543-2.349,21.162-14.107,31.352-21.158c10.19-7.842,20.379-14.892,25.082-27.436c6.271-16.461,3.133-37.629,3.133-54.869
				c0-16.461,3.924-38.409-3.133-53.295c-7.836-18.025-32.139-23.512-49.378-29.783c-36.055-14.898-70.54-28.219-109.732-29.783
				c-15.671-0.785-36.835-3.139-50.947,3.133c-20.378,7.835-44.675,21.947-60.351,36.055c-16.455,15.676-34.486,29.783-50.947,44.68
				c-4.273,4.092-6.699,8.531-8.074,13.184c-1.903,6.422-1.809,13.234-1.842,20.057c-0.039,9.06-0.301,18.141-5.754,26.327
				c-8.799,13.194-26.15,15.31-33.095,27.735c-1.726,3.076-2.805,6.788-2.961,11.452c-0.345,11.342,3.985,18.013,10.54,21.987
				c8.393,5.103,20.434,5.793,30.996,6.233c15.677,0.777,31.353,3.133,46.244,0c18.815-3.141,28.221-15.679,43.896-23.519"/>
			<path fill="none" stroke="#FFFFFF" stroke-width="10" stroke-miterlimit="10" d="M640.502,813.098
				c13.322,6.267,29.783,15.676,43.891,18.811c12.543,2.348,26.65,1.568,39.188,2.348c26.161,1.541,59.867,3.834,84.08-5.716
				c0.456-0.177,0.906-0.361,1.357-0.55"/>
			<path fill="none" stroke="#FFFFFF" stroke-width="10" stroke-miterlimit="10" d="M553.25,768.723c0.028,0,0.051,0,0.078,0
				c3.045,0.012,5.693,0.58,8.682,0.045c1.603-0.285,3.217-0.528,4.83-0.752c10.312-1.413,21.241-2.375,31.57-0.668
				c3.678,0.613,8.236,1.619,10.717,4.676c2.605,3.199,1.152,7.351-0.762,10.506c-6.377,12.053-32.638,17.051-47.457,19.633
				c-1.503,0.267-2.883,0.5-4.118,0.718c-0.05,0.011-0.105,0.017-0.156,0.027"/>
			<path fill="none" stroke="#FFFFFF" stroke-width="10" stroke-miterlimit="10" d="M660.096,718.255
				c0.256-0.589,0.584-1.146,0.975-1.675c7.912-10.724,41.942-9.332,53.89-10.083"/>
			<path fill="none" stroke="#FFFFFF" stroke-width="10" stroke-miterlimit="10" d="M661.666,716.691
				c3.4,3.885,8.709,5.782,13.623,6.817c6.048,1.274,12.387,1.362,18.492,0.45c5.608-0.846,11.412-2.554,15.993-6.015
				c1.752-1.325,3.312-2.933,4.418-4.847c0.528-0.92,0.952-1.893,1.247-2.912c0.256-0.906,0.768-3.166-0.391-3.723"/>
			<path fill="none" stroke="#FFFFFF" stroke-width="10" stroke-miterlimit="10" d="M598.961,696.307
				c7.056,2.354,18.029,10.98,17.244,18.816c-6.716,1.49-16.978,1.563-24.027-0.463c-0.362-0.1-0.713-0.211-1.053-0.322"/>
			<path fill="none" stroke="#FFFFFF" stroke-width="10" stroke-miterlimit="10" d="M598.465,695.963
				c-1.252-0.278-2.365-0.975-3.617-1.113"/>
			<path fill="none" stroke="#FFFFFF" stroke-width="10" stroke-miterlimit="10" d="M576.701,826.432
				c6.177,8.67,18.33,14.808,27.746,15.609c-0.277-6.678-6.399-15.581-10.573-20.869c-3.617-4.451-8.903-6.677-12.521-11.129"/>
			<path fill="none" stroke="#FFFFFF" stroke-width="10" stroke-miterlimit="10" d="M576.701,826.432
				c-0.912-4.27-2.01-8.648-3.974-11.102C572.807,819.303,574.303,823.059,576.701,826.432z"/>
			<path fill="none" stroke="#FFFFFF" stroke-width="10" stroke-miterlimit="10" d="M556.867,802.809
				c-0.027,0.021-0.049,0.05-0.077,0.072c-11.119,10.501-25.554,9.949-39.433,11.893c4.451,15.859,37.563,6.678,46.467-0.557
				c2.226,9.46-1.391,18.363,4.174,27.268c3.061,4.73,9.459,12.799,15.024,14.19c1.669-5.843-2.782-15.86-4.452-21.146
				c-0.689-2.177-1.229-5.109-1.869-8.099"/>
			<path fill="none" stroke="#FFFFFF" stroke-width="10" stroke-miterlimit="10" d="M810.904,815.886
				c-0.078,0.606-0.172,1.214-0.273,1.81c-0.633,3.771-1.691,7.355-2.971,10.844c-2.794,7.613-6.65,14.775-9.555,22.406
				c-4.452,10.016-2.783,18.363-15.025,21.146c-11.129,2.225-22.26-3.34-32.832-2.227c3.338,7.234,23.928,18.364,32.275,17.251
				c-13.355,8.903-36.729,16.138-42.85,32.276c18.363-2.227,33.945-16.695,53.424-18.921c2.225,5.565-1.113,12.243,0.556,17.808
				c1.669,5.009,7.235,9.461,10.017,13.912c-1.669-10.016-2.226-28.381,2.227-37.841c7.234-13.912,27.268-18.364,37.284-30.606
				c7.791-10.574,15.024-27.268,19.478-39.512c5.564-17.25-5.009-26.154-21.703-28.938c-11.687-2.781-38.398,5.566-31.163,22.261"/>
		</g>
	</g>
	<g>
	</g>
	<g>
	</g>
	<g>
	</g>
	<g>
	</g>
	<g>
	</g>
	<g>
	</g>
</g>
<g>
	<path fill="#E3E3E3" d="M195.921,636.101l48.574-62.878c3.462-4.626,7.58-8.024,12.355-10.195c4.764-2.17,9.75-3.25,14.959-3.25
		s10.195,1.08,14.96,3.25c4.774,2.171,8.883,5.569,12.355,10.195l48.573,62.878l73.729,24.721
		c7.496,2.308,13.425,6.574,17.786,12.789c4.319,6.215,6.479,13.086,6.479,20.603c0,3.462-0.508,6.935-1.503,10.407
		c-1.017,3.462-2.689,6.786-4.977,9.974l-47.727,67.641l1.736,71.125c0.296,10.121-3.028,18.654-9.952,25.58
		c-6.945,6.943-15.034,10.416-24.309,10.416c-0.571,0-3.747-0.443-9.528-1.291l-77.625-21.682l-77.625,21.682
		c-1.439,0.551-3.038,0.932-4.764,1.059c-1.736,0.17-3.325,0.232-4.775,0.232c-9.253,0-17.342-3.473-24.287-10.416
		c-6.935-6.926-10.259-15.459-9.973-25.58l1.736-71.547l-47.271-67.219c-2.309-3.188-3.971-6.512-4.987-9.974
		c-1.006-3.473-1.514-6.945-1.514-10.407c0-7.23,2.097-13.953,6.289-20.168s10.047-10.63,17.563-13.224L195.921,636.101z
		 M217.17,666.02l-84.126,27.76l53.772,77.615l-1.736,82.834l86.729-23.842l86.73,24.266l-1.736-83.258l53.782-76.758
		l-84.146-28.617l-54.63-71.548L217.17,666.02z"/>
</g>
<g>
</g>
<g>
</g>
<g>
</g>
<g>
</g>
<g>
</g>
<g>
</g>
</svg>
