<?xml version="1.0" encoding="utf-8"?>
<!-- Generator: Adobe Illustrator 16.0.0, SVG Export Plug-In . SVG Version: 6.00 Build 0)  -->
<!DOCTYPE svg PUBLIC "-//W3C//DTD SVG 1.1//EN" "http://www.w3.org/Graphics/SVG/1.1/DTD/svg11.dtd">
<svg version="1.1" id="Layer_1" xmlns="http://www.w3.org/2000/svg" xmlns:xlink="http://www.w3.org/1999/xlink" x="0px" y="0px"
	 width="1000px" height="1000px" viewBox="0 0 1000 1000" enable-background="new 0 0 1000 1000" xml:space="preserve">
<g>
	<g>
		<path fill="#FFFFFF" d="M314.478,466.226c-21.189-9.179-40.405-21.739-57.281-37.493c-16.731-15.617-30.732-33.83-43.483-52.762
			c-13.99-20.771-26.778-42.444-39.519-63.997c-12.991-21.976-24.78-45.592-25.016-71.667c-0.087-9.668-15.087-9.676-15,0
			c0.244,27.061,11.307,51.79,24.522,74.875c13.011,22.728,26.713,45.304,41.223,67.108c27.288,41.006,61.098,77.011,106.984,96.888
			c3.751,1.625,8.013,1.148,10.261-2.691C319.046,473.283,318.231,467.852,314.478,466.226L314.478,466.226z"/>
	</g>
</g>
<g>
	<g>
		<path fill="#FFFFFF" d="M417.734,229.991c-46.717-2.739-93.197-10.271-140.104-8.804c-46.831,1.465-93.245,8.72-140.178,8.804
			c-9.672,0.018-9.674,15.018,0,15c46.275-0.083,92.07-6.771,138.232-8.732c47.511-2.019,94.733,5.958,142.049,8.732
			C427.402,245.558,427.347,230.554,417.734,229.991L417.734,229.991z"/>
	</g>
</g>
<g>
	<g>
		<path fill="#FFFFFF" d="M838.276,172.512c-71.51,16.93-139.607,45.055-209.859,66.197c-9.237,2.78-5.299,17.259,3.988,14.464
			c70.251-21.142,138.35-49.267,209.859-66.197C851.675,184.748,847.684,170.285,838.276,172.512L838.276,172.512z"/>
	</g>
</g>
<g>
	<g>
		<path fill="#FFFFFF" d="M732.788,469.319c43.547-26.763,87.075-59.305,115.914-102.183c15.513-23.064,22.845-49.464,20.992-77.232
			c-1.825-27.355-11.166-53.462-16.835-80.11c-1.717-8.067-3.005-16.194-3.681-24.415c-0.787-9.57-15.793-9.646-15,0
			c4.404,53.573,36.933,108.01,9.769,160.439c-11.768,22.713-29.754,41.816-48.551,58.872
			c-19.142,17.369-40.153,32.611-61.914,46.513c-2.738,1.749-5.497,3.464-8.265,5.165
			C716.994,461.421,724.523,474.398,732.788,469.319L732.788,469.319z"/>
	</g>
</g>
<g>
	<g>
		<path fill="#FFFFFF" d="M292.968,479.555c-20.643-4.247-31.727-25.17-47.504-37.272c-3.678-2.821-10.228,0.061-11.018,4.482
			c-2.908,16.282-1.207,33.347,2.617,49.336c3.802,15.899,10.923,32.642,24.772,42.231c-0.506-3.926-1.012-7.853-1.518-11.779
			c-8.684,7.107-18.77,12.321-28.195,18.345c-10.236,6.542-19.289,14.196-26.499,24.019c-3.179,4.33,0.481,9.339,4.482,11.018
			c14.213,5.961,29.942,8.426,45.13,10.392c15.464,2.001,32.3,3.353,47.59-0.532c9.37-2.382,5.393-16.849-3.987-14.465
			c-13.497,3.43-28.555,1.78-42.199,0.17c-14.29-1.686-29.217-4.438-42.546-10.029c1.494,3.673,2.988,7.346,4.482,11.018
			c13.138-17.897,35.563-25.591,52.348-39.326c4.005-3.278,2.1-9.275-1.518-11.779c-10.763-7.453-15.301-22.483-18.182-34.53
			c-3.047-12.742-4.577-27.432-2.315-40.099c-3.672,1.494-7.345,2.988-11.018,4.482c8.386,6.432,14.922,15.054,22.443,22.413
			c8.029,7.855,17.525,14.084,28.645,16.372C298.421,495.961,302.439,481.503,292.968,479.555L292.968,479.555z"/>
	</g>
</g>
<g>
	<g>
		<path fill="#FFFFFF" d="M482.624,514.559c10.798,0,21.597,0,32.395,0c9.673,0,9.673-15,0-15c-10.798,0-21.596,0-32.395,0
			C472.951,499.559,472.951,514.559,482.624,514.559L482.624,514.559z"/>
	</g>
</g>
<g>
	<g>
		<path fill="#FFFFFF" d="M307.033,601.839c8.626,18.287,27.919,28.482,46.156,34.877c18.675,6.549,39.146,9.613,58.911,9.683
			c9.674,0.034,9.671-14.966,0-15c-17.36-0.061-34.715-2.791-51.288-7.945c-15.979-4.97-33.338-13.309-40.827-29.185
			C315.861,585.524,302.931,593.143,307.033,601.839L307.033,601.839z"/>
	</g>
</g>
<g>
	<g>
		<path fill="#FFFFFF" d="M589.566,637.948c20.533,1.301,41.144,1.843,61.604-0.726c20.62-2.588,40.216-8.535,59.083-17.2
			c8.782-4.032,1.154-16.958-7.57-12.951c-17.3,7.944-35.731,13.31-54.652,15.533c-19.39,2.278-39.028,1.575-58.464,0.344
			C579.902,622.336,579.962,637.34,589.566,637.948L589.566,637.948z"/>
	</g>
</g>
<g>
	<g>
		<path fill="#FFFFFF" d="M698.475,844.532c-0.087-36.662-5.867-72.954-18.402-107.451c-12.639-34.782-31.354-66.931-51.637-97.742
			c-5.292-8.041-18.287-0.535-12.951,7.57c19.571,29.732,37.768,60.661,50.124,94.159c12.254,33.22,17.782,68.119,17.866,103.464
			C683.497,854.204,698.497,854.206,698.475,844.532L698.475,844.532z"/>
	</g>
</g>
<g>
	<g>
		<path fill="#FFFFFF" d="M430.609,360.123c-33.869-1.556-46.346,39.234-49.886,65.895c-2.182,16.426-1.621,33.511,2.135,49.669
			c3.216,13.839,9.505,26.11,21.41,34.227c10.431,7.111,23.775,9.148,34.841,2.289c11.094-6.877,17.223-19.733,21.216-31.662
			c9.52-28.44,9.753-63.808-0.905-91.955c-4.084-10.787-10.078-20.458-19.392-27.438c-3.279-2.458-8.372-0.534-10.261,2.69
			c-2.245,3.832-0.574,7.815,2.691,10.262c-0.962-0.721,1.65,1.466,2.127,1.921c1.02,0.973,1.957,2.03,2.866,3.106
			c0.844,0.999,3.276,4.736,4.603,7.181c3.085,5.684,5.012,11.728,6.672,18.616c3.546,14.709,3.966,30.229,2.528,45.576
			c-1.224,13.062-4.604,27.524-10.877,38.536c-0.699,1.227-1.465,2.412-2.26,3.578c-0.087,0.128-1.426,1.944-0.431,0.658
			c-0.401,0.519-0.827,1.018-1.253,1.516c-0.821,0.96-1.714,1.854-2.635,2.716c-1.793,1.68-0.249,0.435-2.259,1.748
			c-0.96,0.628-1.984,1.149-3.027,1.625c1.759-0.804-1.356,0.34-1.946,0.482c-0.381,0.092-2.268,0.353-0.241,0.104
			c-0.571,0.07-1.147,0.091-1.722,0.112c-0.587,0.021-1.175-0.009-1.762-0.037c-2.145-0.104,0.267,0.11-1.03-0.131
			c-1.285-0.24-2.537-0.632-3.77-1.061c-2.116-0.735,1.31,0.64-0.807-0.317c-0.678-0.307-1.335-0.656-1.992-1.004
			c-1.42-0.752-2.77-1.631-4.097-2.536c-0.718-0.489-1.411-1.015-2.103-1.54c1.397,1.058-0.241-0.243-0.427-0.406
			c-3.725-3.271-6.57-8.458-8.333-13.043c-5.44-14.151-6.326-29.333-5.57-44.386c0.75-14.93,3.913-30.731,10.636-43.7
			c1.253-2.418,3.63-6.237,4.645-7.542c0.955-1.229,1.998-2.384,3.075-3.506c0.523-0.545,1.076-1.06,1.63-1.574
			c0.194-0.18,2.333-1.917,1.335-1.167c2.333-1.751,4.985-3.019,6.426-3.507c3.56-1.206,4.35-1.168,8.149-0.994
			C440.284,375.567,440.241,360.565,430.609,360.123L430.609,360.123z"/>
	</g>
</g>
<g>
	<g>
		<path fill="#FFFFFF" d="M634.438,356.657c-26.524-2.683-44.015,17.691-52.02,40.695c-8.821,25.349-8.688,54.634-3.005,80.637
			c4.303,19.688,14.677,45.922,37.884,48.075c12.373,1.147,24.802-7.813,32.512-16.531c13.044-14.75,16.897-35.083,16.885-54.217
			c-0.023-33.369-10.662-68.879-27.188-97.761c-4.802-8.392-17.764-0.839-12.951,7.57c9.155,16.001,15.443,33.588,19.899,51.433
			c4.729,18.938,7.41,39.505,3.425,58.821c-3.046,14.764-11.255,28.384-25.428,34.686c1.79-0.796-1.282,0.371-1.827,0.527
			c-0.604,0.173-3.897,0.702-1.497,0.407c-0.958,0.118-1.925,0.136-2.889,0.117c-2.579-0.052,0.792,0.33-1.703-0.21
			c-0.906-0.196-1.787-0.489-2.655-0.81c2.211,0.817-0.619-0.344-1.176-0.653c-0.846-0.471-1.646-1.019-2.429-1.585
			c1.761,1.273-1.061-0.979-1.553-1.452c-0.766-0.737-1.479-1.527-2.174-2.33c-0.36-0.415-0.703-0.845-1.045-1.274
			c1.2,1.505,0.019-0.018-0.177-0.29c-1.518-2.114-2.824-4.374-4.03-6.677c-2.481-4.738-3.83-8.517-5.604-14.651
			c-3.738-12.928-4.939-24.029-5.067-37.477c-0.131-13.689,1.127-25.102,4.901-38.105c1.861-6.415,3.223-9.848,6.325-15.455
			c2.995-5.411,4.613-7.588,9.131-11.701c0.323-0.294,2.741-2.215,1.335-1.157c0.972-0.732,1.996-1.391,3.035-2.022
			c1.038-0.63,2.122-1.179,3.22-1.698c1.844-0.871-1.45,0.553,0.458-0.187c0.573-0.223,1.158-0.414,1.742-0.604
			c5.059-1.653,7.652-1.731,13.666-1.123c4.075,0.412,7.5-3.724,7.5-7.5C641.938,359.757,638.504,357.068,634.438,356.657
			L634.438,356.657z"/>
	</g>
</g>
<g>
	<g>
		<path fill="#FFFFFF" d="M432.841,321.589c-29.268,5.733-56.462,20.687-75.914,43.445c-19.207,22.472-29.426,51.201-29.593,80.688
			c-0.055,9.675,14.945,9.67,15,0c0.147-26.018,9.089-51.233,26.044-71.07c17.588-20.578,42.077-33.433,68.449-38.599
			C446.316,334.194,442.289,319.738,432.841,321.589L432.841,321.589z"/>
	</g>
</g>
<g>
	<g>
		<path fill="#FFFFFF" d="M712.202,404.328c-5.989-22.863-16.114-45.577-33.273-62.27c-18.285-17.79-42.784-23.479-67.503-19.024
			c-9.509,1.714-5.468,16.168,3.988,14.464c20.58-3.709,39.912,2.096,54.669,16.907c14.42,14.472,22.56,34.463,27.654,53.911
			C700.188,417.666,714.655,413.695,712.202,404.328L712.202,404.328z"/>
	</g>
</g>
<g>
	<g>
		<path fill="#FFFFFF" d="M617.405,223.737c-41.142-42.458-94.205-79.376-156.009-75.436c-4.411,0.281-9.125,4.664-7.232,9.494
			c9.589,24.464,32.806,36.945,48.408,56.831c-0.391-3.029-0.781-6.059-1.172-9.089c-9.476,13.183-22.758,23.775-35.59,33.513
			c-13.708,10.404-28.042,19.939-42.002,29.994c-4.034,2.906-5.66,10.442,0,12.952c20.843,9.245,44.153,7.411,65.919,2.675
			c21.812-4.746,43.172-13.185,62.778-23.802c8.508-4.607,0.936-17.559-7.57-12.952c-17.71,9.59-36.665,16.864-56.237,21.609
			c-18.056,4.377-39.737,7.316-57.319-0.482c0,4.317,0,8.635,0,12.952c28.734-20.696,61.951-39.641,82.973-68.888
			c2.111-2.937,0.783-6.597-1.172-9.089c-13.596-17.329-36.25-29.034-44.551-50.211c-2.411,3.165-4.821,6.329-7.232,9.494
			c57.965-3.695,106.881,31.289,145.401,71.042C613.539,241.3,624.136,230.683,617.405,223.737L617.405,223.737z"/>
	</g>
</g>
<g>
	<g>
		<path fill="#FFFFFF" d="M739.94,601.949c19.003-21.179,54.968-27.28,81.435-19.198c6.229,1.901,11.945-5.477,8.47-11.018
			c-15.272-24.354-33.202-49.264-59.028-63.254c0.897,3.42,1.794,6.841,2.69,10.261c18.261-28.616,44.136-52.689,47.503-88.292
			c0.612-6.471-8.654-10.007-12.804-5.303c-10.051,11.394-22.925,19.781-36.362,26.658c-13.588,6.954-28.907,12.49-44.25,13.398
			c-9.611,0.569-9.667,15.572,0,15c17.189-1.017,33.619-6.714,49.056-14.08c15.506-7.399,30.735-17.416,42.164-30.371
			c-4.269-1.768-8.536-3.536-12.804-5.303c-3.011,31.827-29.139,55.152-45.454,80.721c-2.147,3.364-0.801,8.37,2.69,10.261
			c23.589,12.779,39.706,35.644,53.647,57.873c2.823-3.672,5.646-7.345,8.47-11.018c-31.281-9.551-73.622-1.916-96.03,23.056
			C722.895,598.519,733.467,609.162,739.94,601.949L739.94,601.949z"/>
	</g>
</g>
<g>
	<g>
		<path fill="#FFFFFF" d="M537.453,558.159c-31.931-0.029-63.844-1.38-95.775-1.408c-9.673-0.009-9.672,14.991,0,15
			c31.931,0.028,63.844,1.379,95.775,1.408C547.127,573.168,547.126,558.168,537.453,558.159L537.453,558.159z"/>
	</g>
</g>
<g>
	<g>
		<path fill="#FFFFFF" d="M504.602,565.659c1.658,15.333,12.008,30.54,28.969,30.2c6.714-0.134,13.248-3.682,16.374-9.729
			c4.068-7.871,1.68-16.681-1.79-24.257c-4.022-8.786-16.948-1.157-12.951,7.57c0.727,1.587,1.645,4.163,1.812,5.425
			c0.147,1.109,0.119,2.229,0.048,3.342c0.109-1.704-0.85,2.122-0.07,0.349c-0.729,1.661-0.123,0.964-1.594,1.829
			c-0.765,0.379-0.745,0.385,0.058,0.016c-0.407,0.143-0.82,0.264-1.24,0.363c-0.866,0.165-0.855,0.182,0.031,0.048
			c-0.454,0.04-0.908,0.06-1.363,0.058c-2.42,0.049-5.453-1.23-7.844-3.434c-3.142-2.894-4.955-7.312-5.438-11.78
			c-0.439-4.063-3.079-7.5-7.5-7.5C508.347,558.159,504.161,561.586,504.602,565.659L504.602,565.659z"/>
	</g>
</g>
<g>
	<g>
		<path fill="#FFFFFF" d="M405.498,635.24c-20.757,13.063-44.606,11.604-65.668,0c-6.222-3.429-12.004,2.149-11.018,8.47
			c2.17,13.909,9.146,25.763,19.299,35.37c9.73,9.206,21.464,15.984,31.926,24.277c1.768-4.269,3.536-8.536,5.303-12.804
			c-16.404-0.468-29.909,7.354-38.553,21.12c-8.19,13.043-10.898,29.091-12.609,44.126c-0.545,4.79,5.208,8.617,9.494,7.232
			c19.667-6.356,35.659-22.02,56.338-25.352c-3.075-1.746-6.15-3.492-9.226-5.238c4.574,13.069-3.197,29.79-7.682,42.188
			c-5.593,15.459-12.942,31.988-12.304,48.774c0.366,9.642,15.368,9.677,15,0c-0.614-16.169,7.337-32.462,12.692-47.349
			c5.18-14.4,12.115-32.296,6.758-47.603c-1.464-4.184-4.966-5.925-9.226-5.238c-20.931,3.373-36.611,18.977-56.338,25.352
			c3.165,2.411,6.329,4.821,9.494,7.232c2.441-21.46,9.316-51.013,36.162-50.246c6.085,0.174,10.556-8.64,5.303-12.804
			c-9.811-7.775-20.568-14.36-30.032-22.564c-9.476-8.216-15.391-18.004-17.335-30.464c-3.672,2.823-7.345,5.646-11.018,8.47
			c25.606,14.108,55.538,15.905,80.811,0C421.231,643.055,413.711,630.071,405.498,635.24L405.498,635.24z"/>
	</g>
</g>
<g>
</g>
<g>
</g>
<g>
</g>
<g>
</g>
<g>
</g>
<g>
</g>
</svg>
