<?xml version="1.0" encoding="utf-8"?>
<!-- Generator: Adobe Illustrator 16.0.0, SVG Export Plug-In . SVG Version: 6.00 Build 0)  -->
<!DOCTYPE svg PUBLIC "-//W3C//DTD SVG 1.1//EN" "http://www.w3.org/Graphics/SVG/1.1/DTD/svg11.dtd">
<svg version="1.1" id="Layer_1" xmlns="http://www.w3.org/2000/svg" xmlns:xlink="http://www.w3.org/1999/xlink" x="0px" y="0px"
	 width="1000px" height="1000px" viewBox="0 0 1000 1000" enable-background="new 0 0 1000 1000" xml:space="preserve">
<g>
	<path fill="#E3E3E3" d="M167.922,149.195l54.857-71.009c3.909-5.226,8.56-9.064,13.953-11.516c5.38-2.45,11.011-3.67,16.894-3.67
		c5.883,0,11.514,1.22,16.895,3.67c5.393,2.452,10.031,6.29,13.952,11.516l54.857,71.009l83.266,27.918
		c8.465,2.607,15.161,7.425,20.087,14.442c4.877,7.019,7.316,14.779,7.316,23.268c0,3.911-0.574,7.832-1.697,11.753
		c-1.148,3.91-3.038,7.665-5.62,11.262l-53.9,76.391l1.96,80.323c0.335,11.432-3.418,21.067-11.238,28.889
		c-7.844,7.843-16.978,11.764-27.452,11.764c-0.645,0-4.232-0.502-10.761-1.459l-87.665-24.487l-87.665,24.487
		c-1.627,0.623-3.432,1.053-5.381,1.196c-1.961,0.19-3.755,0.263-5.393,0.263c-10.45,0-19.584-3.921-27.428-11.764
		c-7.831-7.822-11.586-17.457-11.264-28.889l1.961-80.802l-53.385-75.912c-2.607-3.598-4.483-7.353-5.632-11.262
		c-1.136-3.922-1.709-7.843-1.709-11.753c0-8.167,2.368-15.759,7.102-22.777c4.735-7.019,11.346-12.004,19.836-14.934
		L167.922,149.195z M191.92,182.983l-95.007,31.351l60.727,87.652l-1.96,93.548l97.948-26.927l97.947,27.405l-1.96-94.026
		l60.738-86.684l-95.03-32.319l-61.695-80.802L191.92,182.983z"/>
</g>
<g>
	<path fill="#E3E3E3" d="M671.923,653.195l54.856-71.01c3.909-5.226,8.561-9.064,13.953-11.516c5.381-2.449,11.012-3.67,16.895-3.67
		s11.514,1.221,16.895,3.67c5.393,2.451,10.031,6.29,13.952,11.516l54.856,71.01l83.266,27.918
		c8.465,2.607,15.162,7.425,20.088,14.442c4.877,7.019,7.316,14.779,7.316,23.269c0,3.91-0.574,7.831-1.697,11.753
		c-1.148,3.909-3.037,7.665-5.619,11.263l-53.9,76.391l1.96,80.323c0.335,11.432-3.419,21.067-11.238,28.889
		c-7.844,7.843-16.978,11.765-27.452,11.765c-0.645,0-4.231-0.503-10.761-1.46l-87.665-24.487l-87.665,24.487
		c-1.627,0.622-3.432,1.054-5.381,1.196c-1.961,0.19-3.754,0.264-5.393,0.264c-10.449,0-19.584-3.922-27.428-11.765
		c-7.831-7.821-11.586-17.457-11.264-28.889l1.961-80.802l-53.385-75.912c-2.607-3.598-4.484-7.354-5.633-11.263
		c-1.135-3.922-1.709-7.843-1.709-11.753c0-8.168,2.368-15.76,7.102-22.777c4.736-7.019,11.347-12.004,19.836-14.934
		L671.923,653.195z M695.92,686.983l-95.007,31.351l60.727,87.652l-1.961,93.549l97.948-26.928l97.947,27.406l-1.96-94.027
		l60.738-86.684l-95.03-32.319l-61.695-80.802L695.92,686.983z"/>
</g>
<g>
	<g>
		<g>
			<path fill="#FFFFFF" d="M590.582,155.268c21.313-12.386,42.625-24.771,63.938-37.156c31.799-18.479,63.596-36.958,95.395-55.436
				c4.893-2.843,9.784-5.686,14.676-8.529c10.376-6.029,1.004-22.128-9.4-16.081c-21.313,12.386-42.625,24.771-63.938,37.157
				c-31.798,18.479-63.596,36.958-95.394,55.436c-4.893,2.843-9.784,5.687-14.676,8.529
				C570.807,145.217,580.178,161.314,590.582,155.268L590.582,155.268z"/>
			<path fill="#FFFFFF" d="M939.734,139.187c-21.31-12.303-42.619-24.606-63.93-36.909c-31.975-18.461-63.948-36.922-95.923-55.381
				c-5.098-2.943-10.195-5.887-15.293-8.83c-10.421-6.016-19.794,10.08-9.4,16.082c21.31,12.303,42.618,24.606,63.929,36.909
				c31.974,18.46,63.948,36.921,95.923,55.381c5.098,2.943,10.195,5.887,15.293,8.83
				C940.754,161.283,950.128,145.188,939.734,139.187L939.734,139.187z"/>
			<path fill="#FFFFFF" d="M930.334,139.187c-21.313,12.385-42.624,24.771-63.937,37.156
				c-31.799,18.479-63.596,36.958-95.394,55.437c-4.892,2.843-9.783,5.686-14.676,8.528c-10.376,6.029-1.004,22.128,9.4,16.081
				c21.313-12.386,42.625-24.771,63.937-37.156c31.799-18.479,63.596-36.958,95.393-55.437c4.893-2.843,9.784-5.686,14.677-8.528
				C950.11,149.237,940.738,133.14,930.334,139.187L930.334,139.187z"/>
			<path fill="#FFFFFF" d="M751.716,248.348c-0.07,24.652-0.14,49.305-0.21,73.957c-0.104,36.781-0.208,73.562-0.313,110.343
				c-0.017,5.658-0.032,11.316-0.049,16.976c-0.033,12.012,18.591,12.008,18.624,0c0.07-24.652,0.141-49.305,0.211-73.957
				c0.104-36.781,0.208-73.562,0.313-110.343c0.016-5.659,0.032-11.316,0.048-16.976
				C770.374,236.336,751.75,236.339,751.716,248.348L751.716,248.348z"/>
			<path fill="#FFFFFF" d="M765.156,441.582c-21.31-12.302-42.619-24.606-63.929-36.909c-31.974-18.459-63.948-36.921-95.923-55.381
				c-5.098-2.943-10.195-5.887-15.293-8.83c-10.421-6.016-19.794,10.079-9.4,16.08c21.31,12.304,42.619,24.607,63.929,36.91
				c31.975,18.46,63.949,36.922,95.923,55.381c5.098,2.943,10.195,5.887,15.293,8.831
				C766.177,463.68,775.551,447.584,765.156,441.582L765.156,441.582z"/>
			<path fill="#FFFFFF" d="M594.623,348.503c0.07-24.652,0.141-49.305,0.21-73.957c0.104-36.781,0.209-73.563,0.313-110.344
				c0.017-5.658,0.033-11.316,0.049-16.976c0.034-12.012-18.59-12.008-18.624,0c-0.07,24.652-0.14,49.305-0.209,73.957
				c-0.104,36.781-0.209,73.562-0.313,110.343c-0.017,5.658-0.032,11.316-0.048,16.977
				C575.965,360.514,594.589,360.511,594.623,348.503L594.623,348.503z"/>
			<path fill="#FFFFFF" d="M925.722,147.227c-0.069,24.652-0.14,49.305-0.21,73.957c-0.104,36.781-0.208,73.562-0.313,110.343
				c-0.016,5.658-0.031,11.316-0.048,16.977c-0.033,12.011,18.59,12.008,18.624,0c0.07-24.652,0.141-49.305,0.21-73.958
				c0.104-36.78,0.209-73.562,0.313-110.343c0.016-5.658,0.031-11.316,0.048-16.976C944.38,135.215,925.757,135.218,925.722,147.227
				L925.722,147.227z"/>
			<path fill="#FFFFFF" d="M929.763,340.461c-21.313,12.386-42.624,24.771-63.937,37.156
				c-31.799,18.479-63.596,36.958-95.394,55.438c-4.893,2.843-9.784,5.685-14.676,8.527c-10.376,6.03-1.005,22.129,9.4,16.082
				c21.313-12.386,42.624-24.771,63.937-37.157c31.798-18.479,63.596-36.957,95.394-55.437c4.892-2.843,9.784-5.686,14.676-8.528
				C949.539,350.513,940.168,334.415,929.763,340.461L929.763,340.461z"/>
			<path fill="#FFFFFF" d="M581.183,155.268c21.31,12.304,42.619,24.606,63.929,36.909c31.975,18.461,63.949,36.922,95.924,55.382
				c5.098,2.943,10.194,5.887,15.293,8.83c10.42,6.015,19.794-10.08,9.4-16.082c-21.311-12.303-42.62-24.605-63.93-36.909
				c-31.974-18.461-63.948-36.922-95.923-55.381c-5.098-2.943-10.195-5.887-15.294-8.83
				C580.162,133.171,570.788,149.267,581.183,155.268L581.183,155.268z"/>
		</g>
	</g>
	<g>
	</g>
	<g>
	</g>
	<g>
	</g>
	<g>
	</g>
	<g>
	</g>
	<g>
	</g>
</g>
<g>
	<g>
		<g>
			<path fill="#FFFFFF" d="M78.236,659.268c21.313-12.386,42.625-24.771,63.938-37.156c31.799-18.479,63.596-36.957,95.395-55.436
				c4.893-2.844,9.784-5.687,14.676-8.529c10.376-6.029,1.004-22.128-9.4-16.081c-21.313,12.386-42.625,24.771-63.938,37.157
				c-31.798,18.479-63.596,36.957-95.394,55.436c-4.893,2.843-9.784,5.687-14.676,8.529
				C58.461,649.217,67.832,665.314,78.236,659.268L78.236,659.268z"/>
			<path fill="#FFFFFF" d="M427.389,643.187c-21.31-12.303-42.619-24.606-63.93-36.909c-31.975-18.461-63.948-36.922-95.923-55.381
				c-5.098-2.943-10.195-5.887-15.293-8.83c-10.421-6.016-19.794,10.08-9.4,16.081c21.31,12.303,42.618,24.606,63.929,36.909
				c31.974,18.46,63.948,36.921,95.923,55.381c5.098,2.943,10.195,5.887,15.293,8.83
				C428.408,665.283,437.782,649.188,427.389,643.187L427.389,643.187z"/>
			<path fill="#FFFFFF" d="M417.988,643.187c-21.313,12.385-42.624,24.771-63.937,37.156
				c-31.799,18.479-63.596,36.958-95.394,55.437c-4.892,2.843-9.783,5.686-14.676,8.528c-10.376,6.029-1.004,22.128,9.4,16.081
				c21.313-12.386,42.625-24.771,63.937-37.156c31.799-18.479,63.596-36.958,95.393-55.437c4.893-2.843,9.784-5.686,14.677-8.528
				C437.765,653.237,428.393,637.14,417.988,643.187L417.988,643.187z"/>
			<path fill="#FFFFFF" d="M239.37,752.348c-0.07,24.652-0.14,49.305-0.21,73.957c-0.104,36.781-0.208,73.562-0.313,110.343
				c-0.017,5.658-0.032,11.316-0.049,16.976c-0.033,12.012,18.591,12.008,18.624,0c0.07-24.652,0.141-49.305,0.211-73.957
				c0.104-36.781,0.208-73.562,0.313-110.343c0.016-5.659,0.032-11.316,0.048-16.976
				C258.028,740.336,239.404,740.339,239.37,752.348L239.37,752.348z"/>
			<path fill="#FFFFFF" d="M252.811,945.582c-21.31-12.302-42.619-24.606-63.929-36.909c-31.974-18.459-63.948-36.921-95.923-55.381
				c-5.098-2.943-10.195-5.887-15.293-8.83c-10.421-6.016-19.794,10.079-9.4,16.08c21.31,12.304,42.619,24.607,63.929,36.91
				c31.975,18.46,63.949,36.922,95.923,55.381c5.098,2.943,10.195,5.887,15.293,8.831
				C253.831,967.68,263.205,951.584,252.811,945.582L252.811,945.582z"/>
			<path fill="#FFFFFF" d="M82.277,852.503c0.07-24.652,0.141-49.305,0.21-73.957c0.104-36.781,0.209-73.563,0.313-110.344
				c0.017-5.658,0.033-11.316,0.049-16.976c0.034-12.012-18.59-12.008-18.624,0c-0.07,24.652-0.14,49.305-0.209,73.957
				c-0.104,36.781-0.209,73.562-0.313,110.343c-0.017,5.658-0.032,11.316-0.048,16.977
				C63.619,864.514,82.243,864.511,82.277,852.503L82.277,852.503z"/>
			<path fill="#FFFFFF" d="M413.376,651.227c-0.069,24.652-0.14,49.305-0.21,73.957c-0.104,36.781-0.208,73.562-0.313,110.343
				c-0.016,5.658-0.031,11.316-0.048,16.977c-0.033,12.011,18.59,12.008,18.624,0c0.07-24.652,0.141-49.305,0.21-73.958
				c0.104-36.78,0.209-73.562,0.313-110.343c0.016-5.658,0.031-11.316,0.048-16.976
				C432.034,639.215,413.411,639.218,413.376,651.227L413.376,651.227z"/>
			<path fill="#FFFFFF" d="M417.417,844.461c-21.313,12.386-42.624,24.771-63.937,37.156
				c-31.799,18.479-63.596,36.958-95.394,55.438c-4.893,2.843-9.784,5.685-14.676,8.527c-10.376,6.03-1.005,22.129,9.4,16.082
				c21.313-12.386,42.624-24.771,63.937-37.157c31.798-18.479,63.596-36.957,95.394-55.437c4.892-2.843,9.784-5.686,14.676-8.528
				C437.193,854.513,427.822,838.415,417.417,844.461L417.417,844.461z"/>
			<path fill="#FFFFFF" d="M68.837,659.268c21.31,12.304,42.619,24.606,63.929,36.909c31.975,18.461,63.949,36.922,95.924,55.382
				c5.098,2.943,10.194,5.887,15.293,8.83c10.42,6.015,19.794-10.08,9.4-16.082c-21.311-12.303-42.62-24.605-63.93-36.909
				c-31.974-18.461-63.948-36.922-95.923-55.381c-5.098-2.943-10.195-5.887-15.294-8.83
				C67.816,637.171,58.442,653.267,68.837,659.268L68.837,659.268z"/>
		</g>
	</g>
	<g>
	</g>
	<g>
	</g>
	<g>
	</g>
	<g>
	</g>
	<g>
	</g>
	<g>
	</g>
</g>
<g>
</g>
<g>
</g>
<g>
</g>
<g>
</g>
<g>
</g>
<g>
</g>
</svg>
